<?xml version="1.0" encoding="UTF-8"?>
<svg xmlns="http://www.w3.org/2000/svg" xmlns:xlink="http://www.w3.org/1999/xlink" width="100px" height="100px" viewBox="0 0 100 100" version="1.1">
<g id="surface1">
<path style=" stroke:none;fill-rule:nonzero;fill:rgb(0%,0%,0%);fill-opacity:1;" d="M 0.195312 38.867188 C 0.195312 25.910156 0.195312 13.054688 0.195312 0.195312 C 33.527344 0.195312 66.863281 0.195312 100.195312 0.195312 C 100.195312 33.527344 100.195312 66.863281 100.195312 100.195312 C 66.863281 100.195312 33.527344 100.195312 0.195312 100.195312 C 0.195312 79.785156 0.195312 59.375 0.195312 38.867188 M 66.03125 59.554688 C 62.863281 59.554688 59.691406 59.554688 56.445312 59.554688 C 56.445312 61.234375 56.472656 62.816406 56.433594 64.394531 C 56.414062 65.03125 56.605469 65.449219 57.269531 65.785156 C 60.847656 68.105469 65.160156 68.039062 68.363281 65.589844 C 68.613281 65.398438 68.914062 65.0625 68.917969 64.785156 C 68.96875 62.851562 68.945312 60.917969 68.945312 58.941406 C 67.96875 59.171875 67.089844 59.378906 66.03125 59.554688 M 25.351562 44.324219 C 26.226562 44.109375 26.9375 43.941406 27.160156 42.730469 C 27.753906 39.480469 29.605469 36.980469 32.335938 35.128906 C 32.523438 35 32.683594 34.835938 32.96875 34.597656 C 31.941406 34.597656 31.097656 34.597656 30.074219 34.578125 C 27.425781 34.578125 24.777344 34.578125 22.070312 34.578125 C 22.070312 35.085938 22.070312 35.441406 22.070312 35.796875 C 22.070312 39.597656 22.042969 43.398438 22.082031 47.199219 C 22.097656 48.757812 21.757812 50.152344 20.777344 51.382812 C 20.644531 51.546875 20.523438 51.777344 20.523438 51.980469 C 20.5 53.433594 20.511719 54.886719 20.511719 56.363281 C 21.535156 56.363281 22.449219 56.363281 23.414062 56.363281 C 23.175781 54.507812 23.019531 52.730469 22.707031 50.976562 C 22.21875 48.242188 22.464844 45.839844 25.351562 44.324219 M 77.964844 29.417969 C 79.28125 30.519531 80.429688 32.015625 82.609375 31.289062 C 82.6875 30.683594 82.785156 30.015625 82.855469 29.347656 C 83.523438 23.089844 81.808594 17.59375 77.53125 12.945312 C 73.957031 9.058594 69.484375 6.945312 64.269531 6.5 C 60.789062 6.203125 57.410156 6.769531 54.113281 8.378906 C 53.5 8.699219 52.886719 9.015625 52.273438 9.335938 C 52.296875 9.414062 52.320312 9.492188 52.339844 9.570312 C 52.648438 9.570312 52.957031 9.570312 53.265625 9.570312 C 56.941406 9.570312 60.617188 9.558594 64.292969 9.574219 C 69.402344 9.589844 73.609375 13.789062 73.628906 18.886719 C 73.640625 21 73.621094 23.113281 73.644531 25.230469 C 73.648438 25.558594 73.710938 26.011719 73.925781 26.1875 C 75.21875 27.261719 76.566406 28.273438 77.964844 29.417969 M 53.039062 43.039062 C 54.75 44.09375 55.832031 45.605469 55.980469 47.617188 C 56.0625 48.707031 55.859375 49.816406 55.757812 50.917969 C 55.59375 52.71875 55.410156 54.515625 55.226562 56.375 C 56.734375 56.375 58.109375 56.375 59.511719 56.375 C 59.511719 49.097656 59.511719 41.890625 59.511719 34.597656 C 55.726562 34.597656 51.992188 34.597656 48.078125 34.578125 C 47.28125 34.578125 46.488281 34.578125 45.5 34.578125 C 45.753906 34.804688 45.832031 34.894531 45.929688 34.957031 C 48.320312 36.46875 50.0625 38.546875 50.929688 41.222656 C 51.292969 42.339844 51.9375 42.757812 53.039062 43.039062 M 31.628906 75.765625 C 32.042969 81.792969 32.460938 87.824219 32.878906 93.894531 C 33.210938 93.914062 33.460938 93.945312 33.710938 93.945312 C 36.472656 93.945312 39.230469 93.945312 42.019531 93.945312 C 41.996094 93.632812 41.996094 93.40625 41.957031 93.183594 C 41.371094 89.824219 40.785156 86.464844 40.179688 83.105469 C 39.550781 79.621094 38.898438 76.140625 38.261719 72.511719 C 37.972656 71.632812 37.679688 70.753906 37.328125 69.691406 C 35.832031 70.496094 34.441406 71.167969 33.132812 71.976562 C 31.363281 73.074219 31.246094 73.480469 31.628906 75.765625 M 62.019531 31.714844 C 62.242188 32.324219 62.660156 32.933594 62.664062 33.542969 C 62.710938 40.828125 62.695312 48.109375 62.695312 55.394531 C 62.695312 55.738281 62.695312 56.078125 62.695312 56.34375 C 65.480469 56.765625 67.898438 56.183594 70.15625 54.730469 C 71.542969 53.835938 73.035156 53.097656 74.503906 52.339844 C 76.976562 51.0625 78.152344 48.914062 78.269531 46.273438 C 78.414062 42.964844 78.292969 39.644531 78.316406 36.148438 C 78.316406 35.824219 78.273438 35.492188 78.328125 35.175781 C 78.515625 34.117188 78.046875 33.457031 77.210938 32.839844 C 75.488281 31.5625 73.863281 30.15625 72.152344 28.863281 C 71.753906 28.5625 71.179688 28.347656 70.683594 28.34375 C 65.320312 28.304688 59.953125 28.320312 54.589844 28.320312 C 52.25 28.320312 49.910156 28.320312 47.503906 28.320312 C 47.78125 29.398438 48.042969 30.417969 48.304688 31.445312 C 52.421875 31.445312 56.453125 31.441406 60.480469 31.453125 C 60.960938 31.453125 61.4375 31.5625 62.019531 31.714844 M 70.5 23.441406 C 70.5 21.976562 70.515625 20.511719 70.503906 19.046875 C 70.480469 15.425781 67.753906 12.703125 64.121094 12.699219 C 56.929688 12.6875 49.734375 12.703125 42.542969 12.691406 C 40.980469 12.6875 39.605469 13.191406 38.386719 14.136719 C 36.148438 15.878906 35.449219 19.464844 36.914062 21.828125 C 38.027344 24.128906 39.988281 25.160156 42.421875 25.175781 C 51.429688 25.226562 60.4375 25.183594 69.449219 25.214844 C 70.328125 25.21875 70.640625 24.949219 70.507812 24.109375 C 70.484375 23.949219 70.492188 23.785156 70.5 23.441406 M 93.789062 75.433594 C 94.089844 72.972656 94.015625 72.820312 91.832031 71.570312 C 91.464844 71.359375 91.105469 71.128906 90.714844 70.976562 C 87.390625 69.679688 84.09375 68.308594 80.722656 67.144531 C 77.917969 66.175781 75.027344 65.460938 72.015625 64.585938 C 72.257812 65.90625 71.898438 66.828125 70.898438 67.589844 C 68.90625 69.253906 66.628906 70.253906 64.039062 70.527344 C 60.386719 70.90625 57.199219 69.800781 54.300781 67.421875 C 52.699219 66.300781 53.589844 64.566406 53.253906 63.128906 C 52.25 63.164062 52.21875 63.859375 52.382812 64.539062 C 52.644531 65.628906 53.007812 66.695312 53.324219 67.925781 C 54.75 72.917969 56.191406 77.910156 57.582031 82.910156 C 57.757812 83.53125 58.039062 83.722656 58.640625 83.785156 C 63.8125 84.335938 68.980469 84.921875 74.152344 85.492188 C 75.523438 85.644531 76.890625 85.777344 78.363281 85.933594 C 78.363281 84.371094 78.363281 82.921875 78.363281 81.519531 C 79.445312 81.519531 80.4375 81.519531 81.476562 81.519531 C 81.476562 85.683594 81.476562 89.773438 81.476562 93.902344 C 85.160156 93.902344 88.789062 93.902344 92.46875 93.902344 C 92.503906 93.582031 92.542969 93.296875 92.5625 93.011719 C 92.746094 90.515625 92.9375 88.015625 93.101562 85.519531 C 93.324219 82.207031 93.523438 78.898438 93.789062 75.433594 M 27.605469 57.457031 C 28.851562 58.085938 30.078125 58.765625 31.347656 59.335938 C 36.6875 61.71875 39.828125 65.984375 41.148438 71.480469 C 42.335938 76.429688 43.035156 81.5 43.945312 86.519531 C 44.386719 88.976562 44.816406 91.4375 45.25 93.886719 C 56.308594 93.886719 67.292969 93.886719 78.261719 93.886719 C 78.261719 92.25 78.261719 90.671875 78.261719 89.085938 C 69.335938 88.089844 60.460938 87.101562 51.566406 86.109375 C 51.707031 84.996094 51.832031 84.011719 51.957031 83.035156 C 52.8125 83.113281 53.550781 83.183594 54.402344 83.261719 C 54.296875 82.851562 54.226562 82.546875 54.144531 82.246094 C 52.617188 76.875 51.113281 71.5 49.554688 66.140625 C 48.851562 63.710938 49.320312 61.613281 50.953125 59.695312 C 51.398438 59.175781 51.8125 58.480469 51.894531 57.824219 C 52.289062 54.664062 52.589844 51.488281 52.871094 48.3125 C 52.953125 47.417969 52.660156 46.609375 51.800781 46.066406 C 50.996094 53.898438 45.25 57.554688 40.316406 57.964844 C 37.542969 58.199219 34.949219 57.570312 32.601562 56.0625 C 29.363281 53.984375 27.507812 50.980469 26.859375 47.175781 C 25.839844 47.4375 25.53125 48.09375 25.632812 48.953125 C 25.90625 51.277344 26.179688 53.605469 26.558594 55.914062 C 26.644531 56.445312 27.15625 56.910156 27.605469 57.457031 M 12.777344 30.074219 C 11.851562 31.933594 10.894531 33.777344 10.007812 35.65625 C 9.757812 36.191406 9.589844 36.828125 9.589844 37.417969 C 9.558594 43.597656 9.585938 49.78125 9.5625 55.964844 C 9.554688 57.96875 10.234375 59.632812 11.667969 61.023438 C 13.09375 62.40625 14.464844 63.84375 15.886719 65.226562 C 17.980469 67.269531 18.96875 69.726562 18.957031 72.65625 C 18.921875 79.390625 18.945312 86.128906 18.945312 92.863281 C 18.945312 93.210938 18.945312 93.554688 18.945312 93.902344 C 22.59375 93.902344 26.128906 93.902344 29.707031 93.902344 C 29.707031 93.675781 29.71875 93.488281 29.707031 93.300781 C 29.277344 87.203125 28.828125 81.101562 28.429688 75 C 28.359375 73.910156 28.6875 72.761719 28.472656 71.714844 C 27.714844 68.015625 26.8125 64.34375 25.941406 60.667969 C 25.757812 59.898438 25.273438 59.523438 24.40625 59.554688 C 22.714844 59.609375 21.023438 59.574219 19.332031 59.570312 C 17.933594 59.5625 17.390625 59.019531 17.382812 57.617188 C 17.378906 56.195312 17.382812 54.769531 17.382812 53.285156 C 16.828125 53.285156 16.355469 53.285156 15.863281 53.285156 C 15.863281 52.234375 15.863281 51.242188 15.863281 50.25 C 18.316406 50.050781 19.210938 49.09375 18.808594 47.027344 C 17.835938 47.027344 16.84375 47.027344 15.886719 47.027344 C 15.886719 45.953125 15.886719 44.960938 15.886719 43.890625 C 16.941406 43.890625 17.933594 43.890625 18.875 43.890625 C 18.875 42.816406 18.875 41.824219 18.875 40.789062 C 17.835938 40.789062 16.867188 40.789062 15.863281 40.789062 C 15.863281 39.753906 15.863281 38.761719 15.863281 37.691406 C 16.890625 37.691406 17.886719 37.691406 18.898438 37.691406 C 18.898438 36.617188 18.898438 35.625 18.898438 34.554688 C 17.863281 34.554688 16.871094 34.554688 15.871094 34.554688 C 15.871094 33.480469 15.871094 32.492188 15.871094 31.433594 C 17.960938 31.433594 20 31.433594 22.039062 31.433594 C 22.039062 30.113281 21.667969 29.648438 20.457031 29.464844 C 18.691406 29.195312 16.921875 28.933594 15.148438 28.703125 C 13.777344 28.523438 13.496094 28.699219 12.777344 30.074219 M 45.105469 38.1875 C 42.835938 36.46875 40.308594 35.726562 37.492188 36.328125 C 33.71875 37.128906 31.210938 39.417969 30.222656 43.144531 C 29.207031 46.96875 30.339844 50.277344 33.378906 52.757812 C 36.320312 55.164062 39.695312 55.59375 43.171875 53.996094 C 49.34375 51.164062 50.652344 42.871094 45.105469 38.1875 M 41.503906 31.445312 C 42.632812 31.445312 43.761719 31.445312 45.03125 31.445312 C 44.867188 30.742188 44.75 30.179688 44.605469 29.625 C 44.378906 28.753906 43.796875 28.324219 42.902344 28.320312 C 40.46875 28.320312 38.03125 28.273438 35.601562 28.359375 C 35.082031 28.378906 34.390625 28.769531 34.113281 29.203125 C 33.738281 29.796875 33.683594 30.589844 33.453125 31.445312 C 36.191406 31.445312 38.75 31.445312 41.503906 31.445312 M 81.445312 36.238281 C 81.445312 37.234375 81.445312 38.226562 81.445312 39.222656 C 82.695312 39.363281 83.675781 39.089844 84.273438 38.019531 C 84.746094 37.175781 84.675781 36.320312 84.113281 35.550781 C 83.453125 34.660156 82.539062 34.429688 81.445312 34.644531 C 81.445312 35.148438 81.445312 35.597656 81.445312 36.238281 Z M 81.445312 36.238281 "/>
<path style=" stroke:none;fill-rule:nonzero;fill:rgb(91.372549%,78.823529%,39.607843%);fill-opacity:1;" d="M 54.367188 67.539062 C 57.199219 69.800781 60.386719 70.90625 64.039062 70.527344 C 66.628906 70.253906 68.90625 69.253906 71.042969 67.574219 C 72.753906 67.964844 74.332031 68.335938 75.890625 68.773438 C 81.234375 70.269531 86.550781 71.851562 91.527344 74.382812 C 92.273438 74.761719 92.996094 75.1875 93.734375 75.589844 C 93.523438 78.898438 93.324219 82.207031 93.101562 85.519531 C 92.9375 88.015625 92.746094 90.515625 92.5625 93.011719 C 92.542969 93.296875 92.503906 93.582031 92.46875 93.902344 C 88.789062 93.902344 85.160156 93.902344 81.476562 93.902344 C 81.476562 89.773438 81.476562 85.683594 81.476562 81.519531 C 80.4375 81.519531 79.445312 81.519531 78.363281 81.519531 C 78.363281 82.921875 78.363281 84.371094 78.363281 85.933594 C 76.890625 85.777344 75.523438 85.644531 74.152344 85.492188 C 68.980469 84.921875 63.8125 84.335938 58.640625 83.785156 C 58.039062 83.722656 57.757812 83.53125 57.582031 82.910156 C 56.191406 77.910156 54.75 72.917969 53.402344 67.84375 C 53.777344 67.691406 54.070312 67.617188 54.367188 67.539062 Z M 54.367188 67.539062 "/>
<path style=" stroke:none;fill-rule:nonzero;fill:rgb(98.431373%,87.45098%,72.156863%);fill-opacity:1;" d="M 27.539062 57.429688 C 27.15625 56.910156 26.644531 56.445312 26.558594 55.914062 C 26.179688 53.605469 25.90625 51.277344 25.632812 48.953125 C 25.53125 48.09375 25.839844 47.4375 26.859375 47.175781 C 27.507812 50.980469 29.363281 53.984375 32.601562 56.0625 C 34.949219 57.570312 37.542969 58.199219 40.316406 57.964844 C 45.25 57.554688 50.996094 53.898438 51.800781 46.066406 C 52.660156 46.609375 52.953125 47.417969 52.871094 48.3125 C 52.589844 51.488281 52.289062 54.664062 51.894531 57.824219 C 51.8125 58.480469 51.398438 59.175781 50.953125 59.695312 C 49.320312 61.613281 48.851562 63.710938 49.554688 66.140625 C 51.113281 71.5 52.617188 76.875 54.144531 82.246094 C 54.226562 82.546875 54.296875 82.851562 54.402344 83.261719 C 53.550781 83.183594 52.8125 83.113281 51.957031 83.035156 C 51.832031 84.011719 51.707031 84.996094 51.566406 86.109375 C 60.460938 87.101562 69.335938 88.089844 78.261719 89.085938 C 78.261719 90.671875 78.261719 92.25 78.261719 93.886719 C 67.292969 93.886719 56.308594 93.886719 45.25 93.886719 C 44.816406 91.4375 44.386719 88.976562 43.945312 86.519531 C 43.035156 81.5 42.335938 76.429688 41.148438 71.480469 C 39.828125 65.984375 36.6875 61.71875 31.347656 59.335938 C 30.078125 58.765625 28.851562 58.085938 27.539062 57.429688 Z M 27.539062 57.429688 "/>
<path style=" stroke:none;fill-rule:nonzero;fill:rgb(98.431373%,87.45098%,72.54902%);fill-opacity:1;" d="M 12.816406 30.011719 C 13.496094 28.699219 13.777344 28.523438 15.148438 28.703125 C 16.921875 28.933594 18.691406 29.195312 20.457031 29.464844 C 21.667969 29.648438 22.039062 30.113281 22.039062 31.433594 C 20 31.433594 17.960938 31.433594 15.871094 31.433594 C 15.871094 32.492188 15.871094 33.480469 15.871094 34.554688 C 16.871094 34.554688 17.863281 34.554688 18.898438 34.554688 C 18.898438 35.625 18.898438 36.617188 18.898438 37.691406 C 17.886719 37.691406 16.890625 37.691406 15.863281 37.691406 C 15.863281 38.761719 15.863281 39.753906 15.863281 40.789062 C 16.867188 40.789062 17.835938 40.789062 18.875 40.789062 C 18.875 41.824219 18.875 42.816406 18.875 43.890625 C 17.933594 43.890625 16.941406 43.890625 15.886719 43.890625 C 15.886719 44.960938 15.886719 45.953125 15.886719 47.027344 C 16.84375 47.027344 17.835938 47.027344 18.808594 47.027344 C 19.210938 49.09375 18.316406 50.050781 15.863281 50.25 C 15.863281 51.242188 15.863281 52.234375 15.863281 53.285156 C 16.355469 53.285156 16.828125 53.285156 17.382812 53.285156 C 17.382812 54.769531 17.378906 56.195312 17.382812 57.617188 C 17.390625 59.019531 17.933594 59.5625 19.332031 59.570312 C 21.023438 59.574219 22.714844 59.609375 24.40625 59.554688 C 25.273438 59.523438 25.757812 59.898438 25.941406 60.667969 C 26.8125 64.34375 27.714844 68.015625 28.472656 71.714844 C 28.6875 72.761719 28.359375 73.910156 28.429688 75 C 28.828125 81.101562 29.277344 87.203125 29.707031 93.300781 C 29.71875 93.488281 29.707031 93.675781 29.707031 93.902344 C 26.128906 93.902344 22.59375 93.902344 18.945312 93.902344 C 18.945312 93.554688 18.945312 93.210938 18.945312 92.863281 C 18.945312 86.128906 18.921875 79.390625 18.957031 72.65625 C 18.96875 69.726562 17.980469 67.269531 15.886719 65.226562 C 14.464844 63.84375 13.09375 62.40625 11.667969 61.023438 C 10.234375 59.632812 9.554688 57.96875 9.5625 55.964844 C 9.585938 49.78125 9.558594 43.597656 9.589844 37.417969 C 9.589844 36.828125 9.757812 36.191406 10.007812 35.65625 C 10.894531 33.777344 11.851562 31.933594 12.816406 30.011719 Z M 12.816406 30.011719 "/>
<path style=" stroke:none;fill-rule:nonzero;fill:rgb(10.196078%,19.607843%,43.137255%);fill-opacity:1;" d="M 36.898438 21.691406 C 35.449219 19.464844 36.148438 15.878906 38.386719 14.136719 C 39.605469 13.191406 40.980469 12.6875 42.542969 12.691406 C 49.734375 12.703125 56.929688 12.6875 64.121094 12.699219 C 67.753906 12.703125 70.480469 15.425781 70.503906 19.046875 C 70.515625 20.511719 70.5 21.976562 70.402344 23.535156 C 60.96875 23.628906 51.632812 23.65625 42.300781 23.597656 C 41.234375 23.59375 40.148438 23.207031 39.121094 22.851562 C 38.339844 22.582031 37.636719 22.085938 36.898438 21.691406 Z M 36.898438 21.691406 "/>
<path style=" stroke:none;fill-rule:nonzero;fill:rgb(98.431373%,87.843137%,72.54902%);fill-opacity:1;" d="M 78.289062 36.328125 C 78.292969 39.644531 78.414062 42.964844 78.269531 46.273438 C 78.152344 48.914062 76.976562 51.0625 74.503906 52.339844 C 73.035156 53.097656 71.542969 53.835938 70.15625 54.730469 C 67.898438 56.183594 65.480469 56.765625 62.695312 56.34375 C 62.695312 56.078125 62.695312 55.738281 62.695312 55.394531 C 62.695312 48.109375 62.710938 40.828125 62.664062 33.542969 C 62.660156 32.933594 62.242188 32.324219 62.03125 31.621094 C 65.292969 31.496094 68.542969 31.464844 71.792969 31.464844 C 72.046875 31.464844 72.332031 31.660156 72.550781 31.832031 C 74.46875 33.320312 76.378906 34.828125 78.289062 36.328125 M 71.359375 35.121094 C 69.699219 34.703125 68.300781 35.464844 67.871094 37.011719 C 67.484375 38.40625 68.292969 39.839844 69.722656 40.292969 C 71.027344 40.707031 72.472656 40.039062 73.015625 38.773438 C 73.617188 37.367188 73.042969 35.996094 71.359375 35.121094 Z M 71.359375 35.121094 "/>
<path style=" stroke:none;fill-rule:nonzero;fill:rgb(91.372549%,78.823529%,39.215686%);fill-opacity:1;" d="M 38.257812 72.660156 C 38.898438 76.140625 39.550781 79.621094 40.179688 83.105469 C 40.785156 86.464844 41.371094 89.824219 41.957031 93.183594 C 41.996094 93.40625 41.996094 93.632812 42.019531 93.945312 C 39.230469 93.945312 36.472656 93.945312 33.710938 93.945312 C 33.460938 93.945312 33.210938 93.914062 32.878906 93.894531 C 32.460938 87.824219 32.042969 81.792969 31.710938 75.667969 C 32.378906 75.234375 32.941406 74.84375 33.558594 74.578125 C 35.109375 73.90625 36.6875 73.296875 38.257812 72.660156 Z M 38.257812 72.660156 "/>
<path style=" stroke:none;fill-rule:nonzero;fill:rgb(37.254902%,37.254902%,37.254902%);fill-opacity:1;" d="M 45.160156 38.230469 C 50.652344 42.871094 49.34375 51.164062 43.171875 53.996094 C 39.695312 55.59375 36.320312 55.164062 33.378906 52.757812 C 30.339844 50.277344 29.207031 46.96875 30.222656 43.144531 C 31.210938 39.417969 33.71875 37.128906 37.492188 36.328125 C 40.308594 35.726562 42.835938 36.46875 45.160156 38.230469 M 35.421875 50.425781 C 35.609375 50.554688 35.792969 50.691406 35.988281 50.808594 C 38.902344 52.597656 42.683594 51.753906 44.484375 48.914062 C 46.355469 45.972656 45.585938 42.226562 42.714844 40.308594 C 40.035156 38.515625 36.328125 39.089844 34.382812 41.605469 C 32.234375 44.378906 32.609375 47.941406 35.421875 50.425781 Z M 35.421875 50.425781 "/>
<path style=" stroke:none;fill-rule:nonzero;fill:rgb(37.647059%,37.647059%,37.647059%);fill-opacity:1;" d="M 48.257812 34.597656 C 51.992188 34.597656 55.726562 34.597656 59.511719 34.597656 C 59.511719 41.890625 59.511719 49.097656 59.511719 56.375 C 58.109375 56.375 56.734375 56.375 55.226562 56.375 C 55.410156 54.515625 55.59375 52.71875 55.757812 50.917969 C 55.859375 49.816406 56.0625 48.707031 55.980469 47.617188 C 55.832031 45.605469 54.75 44.09375 52.988281 42.914062 C 52.40625 41.308594 52.058594 39.71875 51.289062 38.375 C 50.496094 36.992188 49.285156 35.847656 48.257812 34.597656 Z M 48.257812 34.597656 "/>
<path style=" stroke:none;fill-rule:nonzero;fill:rgb(10.196078%,19.215686%,42.745098%);fill-opacity:1;" d="M 54.25 8.355469 C 57.410156 6.769531 60.789062 6.203125 64.269531 6.5 C 69.484375 6.945312 73.957031 9.058594 77.53125 12.945312 C 81.808594 17.59375 83.523438 23.089844 82.855469 29.347656 C 82.785156 30.015625 82.6875 30.683594 82.609375 31.289062 C 80.429688 32.015625 79.28125 30.519531 78.007812 29.339844 C 78.140625 28.941406 78.300781 28.621094 78.308594 28.296875 C 78.332031 26.640625 78.3125 24.980469 78.320312 23.324219 C 78.339844 20.5 77.710938 17.84375 76.175781 15.464844 C 73.378906 11.140625 69.449219 8.703125 64.226562 8.601562 C 61.269531 8.546875 58.308594 8.601562 55.351562 8.582031 C 54.984375 8.578125 54.617188 8.433594 54.25 8.355469 Z M 54.25 8.355469 "/>
<path style=" stroke:none;fill-rule:nonzero;fill:rgb(95.686275%,79.215686%,63.137255%);fill-opacity:1;" d="M 78.300781 36.238281 C 76.378906 34.828125 74.46875 33.320312 72.550781 31.832031 C 72.332031 31.660156 72.046875 31.464844 71.792969 31.464844 C 68.542969 31.464844 65.292969 31.496094 61.980469 31.570312 C 61.4375 31.5625 60.960938 31.453125 60.480469 31.453125 C 56.453125 31.441406 52.421875 31.445312 48.304688 31.445312 C 48.042969 30.417969 47.78125 29.398438 47.503906 28.320312 C 49.910156 28.320312 52.25 28.320312 54.589844 28.320312 C 59.953125 28.320312 65.320312 28.304688 70.683594 28.34375 C 71.179688 28.347656 71.753906 28.5625 72.152344 28.863281 C 73.863281 30.15625 75.488281 31.5625 77.210938 32.839844 C 78.046875 33.457031 78.515625 34.117188 78.328125 35.175781 C 78.273438 35.492188 78.316406 35.824219 78.300781 36.238281 Z M 78.300781 36.238281 "/>
<path style=" stroke:none;fill-rule:nonzero;fill:rgb(7.45098%,14.117647%,30.980392%);fill-opacity:1;" d="M 54.179688 8.367188 C 54.617188 8.433594 54.984375 8.578125 55.351562 8.582031 C 58.308594 8.601562 61.269531 8.546875 64.226562 8.601562 C 69.449219 8.703125 73.378906 11.140625 76.175781 15.464844 C 77.710938 17.84375 78.339844 20.5 78.320312 23.324219 C 78.3125 24.980469 78.332031 26.640625 78.308594 28.296875 C 78.300781 28.621094 78.140625 28.941406 77.972656 29.285156 C 76.566406 28.273438 75.21875 27.261719 73.925781 26.1875 C 73.710938 26.011719 73.648438 25.558594 73.644531 25.230469 C 73.621094 23.113281 73.640625 21 73.628906 18.886719 C 73.609375 13.789062 69.402344 9.589844 64.292969 9.574219 C 60.617188 9.558594 56.941406 9.570312 53.265625 9.570312 C 52.957031 9.570312 52.648438 9.570312 52.339844 9.570312 C 52.320312 9.492188 52.296875 9.414062 52.273438 9.335938 C 52.886719 9.015625 53.5 8.699219 54.179688 8.367188 Z M 54.179688 8.367188 "/>
<path style=" stroke:none;fill-rule:nonzero;fill:rgb(37.254902%,37.254902%,37.254902%);fill-opacity:1;" d="M 25.203125 44.347656 C 22.464844 45.839844 22.21875 48.242188 22.707031 50.976562 C 23.019531 52.730469 23.175781 54.507812 23.414062 56.363281 C 22.449219 56.363281 21.535156 56.363281 20.511719 56.363281 C 20.511719 54.886719 20.5 53.433594 20.523438 51.980469 C 20.523438 51.777344 20.644531 51.546875 20.777344 51.382812 C 21.757812 50.152344 22.097656 48.757812 22.082031 47.199219 C 22.042969 43.398438 22.070312 39.597656 22.070312 35.796875 C 22.070312 35.441406 22.070312 35.085938 22.070312 34.578125 C 24.777344 34.578125 27.425781 34.578125 30.136719 34.644531 C 29.480469 35.492188 28.710938 36.234375 28.050781 37.0625 C 26.351562 39.1875 25.527344 41.675781 25.203125 44.347656 Z M 25.203125 44.347656 "/>
<path style=" stroke:none;fill-rule:nonzero;fill:rgb(80.392157%,69.019608%,34.509804%);fill-opacity:1;" d="M 93.761719 75.511719 C 92.996094 75.1875 92.273438 74.761719 91.527344 74.382812 C 86.550781 71.851562 81.234375 70.269531 75.890625 68.773438 C 74.332031 68.335938 72.753906 67.964844 71.101562 67.550781 C 71.898438 66.828125 72.257812 65.90625 72.015625 64.585938 C 75.027344 65.460938 77.917969 66.175781 80.722656 67.144531 C 84.09375 68.308594 87.390625 69.679688 90.714844 70.976562 C 91.105469 71.128906 91.464844 71.359375 91.832031 71.570312 C 94.015625 72.820312 94.089844 72.972656 93.761719 75.511719 Z M 93.761719 75.511719 "/>
<path style=" stroke:none;fill-rule:nonzero;fill:rgb(98.039216%,87.45098%,72.156863%);fill-opacity:1;" d="M 66.210938 59.582031 C 67.089844 59.378906 67.96875 59.171875 68.945312 58.941406 C 68.945312 60.917969 68.96875 62.851562 68.917969 64.785156 C 68.914062 65.0625 68.613281 65.398438 68.363281 65.589844 C 65.160156 68.039062 60.847656 68.105469 57.269531 65.667969 C 57.574219 65.320312 57.867188 65.066406 58.191406 64.855469 C 60.859375 63.09375 63.535156 61.339844 66.210938 59.582031 Z M 66.210938 59.582031 "/>
<path style=" stroke:none;fill-rule:nonzero;fill:rgb(7.45098%,14.117647%,30.980392%);fill-opacity:1;" d="M 36.90625 21.757812 C 37.636719 22.085938 38.339844 22.582031 39.121094 22.851562 C 40.148438 23.207031 41.234375 23.59375 42.300781 23.597656 C 51.632812 23.65625 60.96875 23.628906 70.394531 23.625 C 70.492188 23.785156 70.484375 23.949219 70.507812 24.109375 C 70.640625 24.949219 70.328125 25.21875 69.449219 25.214844 C 60.4375 25.183594 51.429688 25.226562 42.421875 25.175781 C 39.988281 25.160156 38.027344 24.128906 36.90625 21.757812 Z M 36.90625 21.757812 "/>
<path style=" stroke:none;fill-rule:nonzero;fill:rgb(37.647059%,37.647059%,37.647059%);fill-opacity:1;" d="M 41.40625 31.445312 C 38.75 31.445312 36.191406 31.445312 33.453125 31.445312 C 33.683594 30.589844 33.738281 29.796875 34.113281 29.203125 C 34.390625 28.769531 35.082031 28.378906 35.601562 28.359375 C 38.03125 28.273438 40.46875 28.320312 42.902344 28.320312 C 43.796875 28.324219 44.378906 28.753906 44.605469 29.625 C 44.75 30.179688 44.867188 30.742188 45.03125 31.445312 C 43.761719 31.445312 42.632812 31.445312 41.40625 31.445312 Z M 41.40625 31.445312 "/>
<path style=" stroke:none;fill-rule:nonzero;fill:rgb(96.078431%,79.607843%,63.137255%);fill-opacity:1;" d="M 66.121094 59.570312 C 63.535156 61.339844 60.859375 63.09375 58.191406 64.855469 C 57.867188 65.066406 57.574219 65.320312 57.234375 65.613281 C 56.605469 65.449219 56.414062 65.03125 56.433594 64.394531 C 56.472656 62.816406 56.445312 61.234375 56.445312 59.554688 C 59.691406 59.554688 62.863281 59.554688 66.121094 59.570312 Z M 66.121094 59.570312 "/>
<path style=" stroke:none;fill-rule:nonzero;fill:rgb(80%,68.627451%,34.509804%);fill-opacity:1;" d="M 38.257812 72.585938 C 36.6875 73.296875 35.109375 73.90625 33.558594 74.578125 C 32.941406 74.84375 32.378906 75.234375 31.722656 75.578125 C 31.246094 73.480469 31.363281 73.074219 33.132812 71.976562 C 34.441406 71.167969 35.832031 70.496094 37.328125 69.691406 C 37.679688 70.753906 37.972656 71.632812 38.257812 72.585938 Z M 38.257812 72.585938 "/>
<path style=" stroke:none;fill-rule:nonzero;fill:rgb(26.666667%,26.666667%,26.666667%);fill-opacity:1;" d="M 25.277344 44.335938 C 25.527344 41.675781 26.351562 39.1875 28.050781 37.0625 C 28.710938 36.234375 29.480469 35.492188 30.226562 34.652344 C 31.097656 34.597656 31.941406 34.597656 32.96875 34.597656 C 32.683594 34.835938 32.523438 35 32.335938 35.128906 C 29.605469 36.980469 27.753906 39.480469 27.160156 42.730469 C 26.9375 43.941406 26.226562 44.109375 25.277344 44.335938 Z M 25.277344 44.335938 "/>
<path style=" stroke:none;fill-rule:nonzero;fill:rgb(26.666667%,26.666667%,26.666667%);fill-opacity:1;" d="M 48.167969 34.585938 C 49.285156 35.847656 50.496094 36.992188 51.289062 38.375 C 52.058594 39.71875 52.40625 41.308594 52.9375 42.871094 C 51.9375 42.757812 51.292969 42.339844 50.929688 41.222656 C 50.0625 38.546875 48.320312 36.46875 45.929688 34.957031 C 45.832031 34.894531 45.753906 34.804688 45.5 34.578125 C 46.488281 34.578125 47.28125 34.578125 48.167969 34.585938 Z M 48.167969 34.585938 "/>
<path style=" stroke:none;fill-rule:nonzero;fill:rgb(97.647059%,86.666667%,71.764706%);fill-opacity:1;" d="M 81.445312 36.144531 C 81.445312 35.597656 81.445312 35.148438 81.445312 34.644531 C 82.539062 34.429688 83.453125 34.660156 84.113281 35.550781 C 84.675781 36.320312 84.746094 37.175781 84.273438 38.019531 C 83.675781 39.089844 82.695312 39.363281 81.445312 39.222656 C 81.445312 38.226562 81.445312 37.234375 81.445312 36.144531 Z M 81.445312 36.144531 "/>
<path style=" stroke:none;fill-rule:nonzero;fill:rgb(78.823529%,67.843137%,33.72549%);fill-opacity:1;" d="M 54.332031 67.480469 C 54.070312 67.617188 53.777344 67.691406 53.40625 67.769531 C 53.007812 66.695312 52.644531 65.628906 52.382812 64.539062 C 52.21875 63.859375 52.25 63.164062 53.253906 63.128906 C 53.589844 64.566406 52.699219 66.300781 54.332031 67.480469 Z M 54.332031 67.480469 "/>
<path style=" stroke:none;fill-rule:nonzero;fill:rgb(1.960784%,1.960784%,1.568627%);fill-opacity:1;" d="M 71.433594 35.140625 C 73.042969 35.996094 73.617188 37.367188 73.015625 38.773438 C 72.472656 40.039062 71.027344 40.707031 69.722656 40.292969 C 68.292969 39.839844 67.484375 38.40625 67.871094 37.011719 C 68.300781 35.464844 69.699219 34.703125 71.433594 35.140625 Z M 71.433594 35.140625 "/>
<path style=" stroke:none;fill-rule:nonzero;fill:rgb(0.392157%,0.784314%,0.784314%);fill-opacity:1;" d="M 35.363281 50.386719 C 32.609375 47.941406 32.234375 44.378906 34.382812 41.605469 C 36.328125 39.089844 40.035156 38.515625 42.714844 40.308594 C 45.585938 42.226562 46.355469 45.972656 44.484375 48.914062 C 42.683594 51.753906 38.902344 52.597656 35.988281 50.808594 C 35.792969 50.691406 35.609375 50.554688 35.363281 50.386719 M 42.03125 44.289062 C 42.03125 44.289062 42.039062 44.285156 42.042969 44.148438 C 41.691406 43.734375 41.398438 43.238281 40.96875 42.925781 C 39.539062 41.886719 37.488281 42.375 36.578125 43.910156 C 35.644531 45.492188 36.234375 47.484375 37.878906 48.304688 C 39.503906 49.113281 41.363281 48.410156 42.035156 46.726562 C 42.035156 46.726562 42.03125 46.722656 42.144531 46.675781 C 42.15625 46.59375 42.164062 46.515625 42.230469 46.300781 C 42.210938 45.726562 42.191406 45.152344 42.1875 44.457031 C 42.136719 44.402344 42.082031 44.347656 42.03125 44.289062 Z M 42.03125 44.289062 "/>
<path style=" stroke:none;fill-rule:nonzero;fill:rgb(43.529412%,77.254902%,91.764706%);fill-opacity:1;" d="M 42.039062 46.726562 C 41.363281 48.410156 39.503906 49.113281 37.878906 48.304688 C 36.234375 47.484375 35.644531 45.492188 36.578125 43.910156 C 37.488281 42.375 39.539062 41.886719 40.96875 42.925781 C 41.398438 43.238281 41.691406 43.734375 41.964844 44.21875 C 41.742188 44.222656 41.601562 44.144531 41.453125 44.085938 C 40.695312 43.773438 40.042969 43.953125 39.5625 44.589844 C 39.109375 45.199219 39.121094 45.875 39.597656 46.46875 C 40.101562 47.089844 40.753906 47.238281 41.503906 46.910156 C 41.675781 46.835938 41.859375 46.789062 42.039062 46.726562 Z M 42.039062 46.726562 "/>
<path style=" stroke:none;fill-rule:nonzero;fill:rgb(97.254902%,98.823529%,99.607843%);fill-opacity:1;" d="M 42.039062 46.726562 C 41.859375 46.789062 41.675781 46.835938 41.503906 46.910156 C 40.753906 47.238281 40.101562 47.089844 39.597656 46.46875 C 39.121094 45.875 39.109375 45.199219 39.5625 44.589844 C 40.042969 43.953125 40.695312 43.773438 41.453125 44.085938 C 41.601562 44.144531 41.742188 44.222656 41.960938 44.289062 C 42.039062 44.285156 42.03125 44.289062 42.023438 44.351562 C 42.066406 44.46875 42.121094 44.523438 42.171875 44.582031 C 42.191406 45.152344 42.210938 45.726562 42.152344 46.402344 C 42.058594 46.574219 42.046875 46.648438 42.03125 46.722656 C 42.03125 46.722656 42.035156 46.726562 42.039062 46.726562 Z M 42.039062 46.726562 "/>
<path style=" stroke:none;fill-rule:nonzero;fill:rgb(43.529412%,77.254902%,91.764706%);fill-opacity:1;" d="M 42.179688 44.519531 C 42.121094 44.523438 42.066406 44.46875 42.023438 44.351562 C 42.082031 44.347656 42.136719 44.402344 42.179688 44.519531 Z M 42.179688 44.519531 "/>
<path style=" stroke:none;fill-rule:nonzero;fill:rgb(43.529412%,77.254902%,91.764706%);fill-opacity:1;" d="M 42.089844 46.699219 C 42.046875 46.648438 42.058594 46.574219 42.121094 46.46875 C 42.164062 46.515625 42.15625 46.59375 42.089844 46.699219 Z M 42.089844 46.699219 "/>
</g>
</svg>
