<?xml version="1.0" encoding="UTF-8"?>
<svg xmlns="http://www.w3.org/2000/svg" xmlns:xlink="http://www.w3.org/1999/xlink" width="100px" height="100px" viewBox="0 0 100 100" version="1.1">
<g id="surface1">
<path style=" stroke:none;fill-rule:nonzero;fill:rgb(0%,0%,0%);fill-opacity:1;" d="M 53.90625 100.195312 C 35.941406 100.195312 18.074219 100.195312 0.203125 100.195312 C 0.203125 66.875 0.203125 33.554688 0.203125 0.214844 C 33.507812 0.214844 66.820312 0.214844 100.164062 0.214844 C 100.164062 33.527344 100.164062 66.863281 100.164062 100.195312 C 84.789062 100.195312 69.398438 100.195312 53.90625 100.195312 M 68.800781 26.75 C 67.757812 26.550781 67.394531 25.875 67.371094 24.863281 C 67.300781 21.730469 66.21875 18.96875 64.261719 16.523438 C 63.832031 15.984375 63.367188 15.726562 62.6875 15.847656 C 60.804688 16.195312 58.890625 16.410156 57.046875 16.902344 C 54.476562 17.585938 52.117188 18.78125 49.757812 20.515625 C 50.625 20.515625 51.234375 20.480469 51.835938 20.523438 C 52.652344 20.582031 53.171875 21.0625 53.289062 21.855469 C 53.40625 22.613281 53.070312 23.378906 52.339844 23.457031 C 50.570312 23.644531 48.710938 24.179688 47.070312 22.835938 C 47.070312 26.078125 47.066406 29.300781 47.070312 32.519531 C 47.078125 39.226562 51.785156 43.9375 58.488281 43.945312 C 59.878906 43.945312 61.269531 43.945312 62.726562 43.945312 C 62.726562 44.539062 62.726562 45.023438 62.699219 45.679688 C 62.699219 46.121094 62.699219 46.5625 62.699219 47.066406 C 61.617188 47.066406 60.628906 47.066406 59.617188 47.066406 C 59.539062 47.632812 59.472656 48.132812 59.34375 48.761719 C 58.65625 49.804688 58.0625 50.925781 57.242188 51.851562 C 56.8125 52.339844 56.789062 52.601562 57.074219 53.070312 C 58.328125 55.136719 60.15625 56.320312 62.566406 56.417969 C 64.742188 56.507812 66.925781 56.484375 69.101562 56.425781 C 71.679688 56.359375 74.144531 54.550781 74.84375 52.269531 C 72.609375 50.710938 71.976562 48.460938 72.050781 45.828125 C 72.136719 42.617188 72.070312 39.402344 72.070312 36.199219 C 69.085938 35.722656 67.246094 33.800781 67.5 31.414062 C 67.976562 31.414062 68.460938 31.414062 69.113281 31.441406 C 69.535156 31.441406 69.957031 31.441406 70.445312 31.441406 C 70.480469 31.570312 70.507812 31.683594 70.542969 31.792969 C 70.832031 32.636719 71.40625 33.089844 72.3125 32.980469 C 73.136719 32.878906 73.625 32.210938 73.628906 31.207031 C 73.640625 29.257812 73.644531 27.308594 73.628906 25.359375 C 73.617188 24.34375 73.019531 23.679688 72.144531 23.636719 C 71.308594 23.59375 70.625 24.160156 70.523438 25.109375 C 70.417969 26.109375 69.898438 26.632812 68.800781 26.75 M 97.066406 68.777344 C 97.066406 65.78125 97.066406 62.78125 97.066406 59.628906 C 96.589844 60.054688 96.285156 60.332031 95.90625 60.671875 C 94.242188 58.996094 92.621094 57.351562 90.996094 55.714844 C 89.40625 54.109375 87.476562 53.3125 85.214844 53.320312 C 83.035156 53.324219 80.851562 53.339844 78.671875 53.308594 C 78.109375 53.296875 77.832031 53.464844 77.574219 53.988281 C 76.082031 57.027344 73.664062 58.980469 70.300781 59.382812 C 67.921875 59.667969 65.496094 59.574219 63.089844 59.558594 C 58.933594 59.527344 55.914062 57.613281 53.980469 53.933594 C 53.832031 53.648438 53.386719 53.355469 53.074219 53.347656 C 51.25 53.292969 49.425781 53.335938 47.605469 53.316406 C 44.644531 53.289062 42.335938 54.484375 40.628906 56.898438 C 38.84375 59.421875 37.039062 61.929688 35.246094 64.441406 C 34.742188 65.148438 34.238281 65.855469 33.695312 66.621094 C 37.140625 68.59375 40.492188 70.515625 43.980469 72.511719 C 43.980469 71.207031 43.980469 70.109375 43.980469 69 C 45.03125 69 46.019531 69 47.097656 69 C 47.097656 78.375 47.097656 87.695312 47.097656 97.007812 C 59.636719 97.007812 72.082031 97.007812 84.617188 97.007812 C 84.617188 87.621094 84.617188 78.296875 84.617188 69.019531 C 85.699219 69.019531 86.691406 69.019531 87.75 69.019531 C 87.75 70.175781 87.75 71.261719 87.75 72.445312 C 90.125 71.089844 92.394531 69.792969 94.699219 68.476562 C 95.007812 68.945312 95.273438 69.347656 95.550781 69.878906 C 95.78125 70.296875 96.015625 70.71875 96.265625 71.171875 C 93.609375 72.695312 91.03125 74.195312 88.421875 75.648438 C 87.867188 75.957031 87.675781 76.292969 87.679688 76.929688 C 87.707031 83.375 87.695312 89.820312 87.695312 96.261719 C 87.695312 96.511719 87.71875 96.761719 87.726562 97.015625 C 90.871094 97.015625 93.941406 97.015625 97.070312 97.015625 C 97.070312 94.558594 97.074219 92.15625 97.070312 89.753906 C 97.058594 82.824219 97.046875 75.890625 97.066406 68.777344 M 21.933594 61.160156 C 20.867188 60.8125 19.800781 60.46875 18.632812 60.089844 C 18.714844 61.894531 19.425781 63.226562 20.816406 64.121094 C 21.703125 64.6875 22.097656 65.371094 22.101562 66.4375 C 22.109375 68.34375 22.769531 70.0625 23.925781 71.585938 C 24.171875 71.910156 24.429688 72.226562 24.628906 72.484375 C 23.898438 73.25 23.230469 73.953125 22.410156 74.816406 C 21.492188 73.457031 20.617188 72.164062 19.734375 70.859375 C 18.953125 72.429688 18.144531 74.046875 17.332031 75.679688 C 17.605469 75.882812 17.839844 76.007812 18.023438 76.1875 C 19.886719 77.992188 22.085938 78.65625 24.675781 78.371094 C 25.304688 78.300781 26.140625 78.6875 26.648438 79.132812 C 30.605469 82.566406 34.503906 86.066406 38.421875 89.542969 C 38.632812 89.730469 38.859375 89.890625 39.101562 90.078125 C 40.652344 88.140625 42.164062 86.265625 43.652344 84.375 C 43.816406 84.164062 43.929688 83.855469 43.933594 83.589844 C 43.953125 81.246094 43.953125 78.902344 43.933594 76.558594 C 43.929688 76.347656 43.792969 76.042969 43.621094 75.941406 C 41.703125 74.808594 39.761719 73.707031 37.820312 72.59375 C 37.472656 72.957031 37.195312 73.246094 36.878906 73.578125 C 37.96875 74.21875 38.992188 74.816406 40.027344 75.425781 C 39.46875 76.378906 38.96875 77.238281 38.46875 78.097656 C 34.867188 76.042969 31.371094 74.042969 27.867188 72.058594 C 27.191406 71.675781 26.820312 71.164062 26.714844 70.375 C 26.503906 68.832031 26.21875 67.296875 25.953125 65.757812 C 25.761719 64.636719 25.890625 63.238281 25.257812 62.484375 C 24.632812 61.734375 23.230469 61.636719 22.167969 61.253906 C 22.136719 61.242188 22.109375 61.226562 21.933594 61.160156 M 47.996094 16.835938 C 47.894531 17.175781 47.792969 17.515625 47.664062 17.941406 C 47.917969 17.882812 47.988281 17.882812 48.039062 17.847656 C 52.257812 14.886719 56.941406 13.199219 62.074219 12.761719 C 63.5625 12.632812 65.011719 12.449219 66.148438 13.898438 C 67.613281 15.753906 68.917969 17.667969 69.648438 19.933594 C 69.753906 20.257812 69.894531 20.574219 70.007812 20.878906 C 70.222656 20.847656 70.324219 20.855469 70.410156 20.820312 C 73.332031 19.558594 76.988281 22.007812 76.765625 25.609375 C 76.707031 26.554688 76.757812 27.507812 76.757812 28.457031 C 78.160156 25.636719 78.574219 22.722656 78.136719 19.644531 C 77.117188 12.457031 70.492188 6.554688 63.25 6.449219 C 56.296875 6.351562 50.632812 10.167969 47.996094 16.835938 M 13.574219 60.738281 C 13.257812 61.042969 12.828125 61.292969 12.636719 61.664062 C 10.984375 64.898438 9.359375 68.148438 7.757812 71.40625 C 7.257812 72.417969 7.519531 73.152344 8.507812 73.679688 C 9.597656 74.257812 10.699219 74.808594 11.804688 75.351562 C 13.0625 75.96875 13.808594 75.726562 14.433594 74.484375 C 15.699219 71.964844 16.949219 69.4375 18.203125 66.910156 C 18.300781 66.714844 18.367188 66.507812 18.449219 66.300781 C 17.148438 65.140625 16.21875 63.800781 15.785156 62.144531 C 15.464844 60.917969 15.03125 60.632812 13.574219 60.738281 M 25.882812 41.214844 C 24.3125 40.324219 22.742188 39.433594 21.082031 38.488281 C 20.589844 39.207031 20.144531 39.851562 19.664062 40.550781 C 24.253906 43.171875 28.722656 45.722656 33.246094 48.308594 C 33.488281 47.859375 33.671875 47.480469 33.886719 47.125 C 34.34375 46.371094 34.214844 45.925781 33.371094 45.472656 C 30.886719 44.136719 28.457031 42.6875 25.882812 41.214844 M 18.132812 54.75 C 17.929688 55.28125 17.722656 55.808594 17.496094 56.394531 C 19.609375 57.097656 21.59375 57.757812 23.609375 58.429688 C 24.472656 56.90625 25.277344 55.480469 26.125 53.984375 C 23.945312 52.898438 21.890625 51.871094 19.753906 50.804688 C 19.21875 52.101562 18.703125 53.355469 18.132812 54.75 M 29.09375 49.523438 C 25.757812 47.621094 22.425781 45.722656 19.03125 43.785156 C 18.828125 46.078125 19.378906 47.101562 21.1875 48.003906 C 23.332031 49.078125 25.480469 50.152344 27.628906 51.21875 C 28.609375 51.707031 29.835938 51.398438 30.628906 50.441406 C 30.15625 50.15625 29.6875 49.871094 29.09375 49.523438 M 27.28125 38.441406 C 29.59375 39.75 31.902344 41.0625 34.332031 42.4375 C 33.664062 37.917969 27.917969 34.6875 24.289062 36.691406 C 25.273438 37.269531 26.214844 37.820312 27.28125 38.441406 M 10.027344 77.945312 C 9.65625 77.785156 9.289062 77.621094 8.855469 77.429688 C 8.152344 79.144531 7.496094 80.75 6.8125 82.414062 C 7.582031 82.921875 8.292969 83.390625 9.054688 83.898438 C 10.066406 82.121094 11 80.476562 11.945312 78.820312 C 11.277344 78.519531 10.71875 78.265625 10.027344 77.945312 Z M 10.027344 77.945312 "/>
<path style=" stroke:none;fill-rule:nonzero;fill:rgb(54.117647%,80%,90.588235%);fill-opacity:1;" d="M 95.535156 69.75 C 95.273438 69.347656 95.007812 68.945312 94.699219 68.476562 C 92.394531 69.792969 90.125 71.089844 87.75 72.445312 C 87.75 71.261719 87.75 70.175781 87.75 69.019531 C 86.691406 69.019531 85.699219 69.019531 84.617188 69.019531 C 84.617188 78.296875 84.617188 87.621094 84.617188 97.007812 C 72.082031 97.007812 59.636719 97.007812 47.097656 97.007812 C 47.097656 87.695312 47.097656 78.375 47.097656 69 C 46.019531 69 45.03125 69 43.980469 69 C 43.980469 70.109375 43.980469 71.207031 43.980469 72.511719 C 40.492188 70.515625 37.140625 68.59375 33.695312 66.621094 C 34.238281 65.855469 34.742188 65.148438 35.246094 64.441406 C 37.039062 61.929688 38.84375 59.421875 40.628906 56.898438 C 42.335938 54.484375 44.644531 53.289062 47.605469 53.316406 C 49.425781 53.335938 51.25 53.292969 53.074219 53.347656 C 53.386719 53.355469 53.832031 53.648438 53.980469 53.933594 C 55.914062 57.613281 58.933594 59.527344 63.089844 59.558594 C 65.496094 59.574219 67.921875 59.667969 70.300781 59.382812 C 73.664062 58.980469 76.082031 57.027344 77.574219 53.988281 C 77.832031 53.464844 78.109375 53.296875 78.671875 53.308594 C 80.851562 53.339844 83.035156 53.324219 85.214844 53.320312 C 87.476562 53.3125 89.40625 54.109375 90.996094 55.714844 C 92.621094 57.351562 94.242188 58.996094 95.90625 60.671875 C 96.285156 60.332031 96.589844 60.054688 97.066406 59.628906 C 97.066406 62.78125 97.066406 65.78125 96.992188 68.894531 C 96.457031 69.257812 95.996094 69.503906 95.535156 69.75 Z M 95.535156 69.75 "/>
<path style=" stroke:none;fill-rule:nonzero;fill:rgb(95.294118%,80.392157%,68.235294%);fill-opacity:1;" d="M 62.726562 45.503906 C 62.726562 45.023438 62.726562 44.539062 62.726562 43.945312 C 61.269531 43.945312 59.878906 43.945312 58.488281 43.945312 C 51.785156 43.9375 47.078125 39.226562 47.070312 32.519531 C 47.066406 29.300781 47.070312 26.078125 47.070312 22.835938 C 48.710938 24.179688 50.570312 23.644531 52.339844 23.457031 C 53.070312 23.378906 53.40625 22.613281 53.289062 21.855469 C 53.171875 21.0625 52.652344 20.582031 51.835938 20.523438 C 51.234375 20.480469 50.625 20.515625 49.757812 20.515625 C 52.117188 18.78125 54.476562 17.585938 57.046875 16.902344 C 58.890625 16.410156 60.804688 16.195312 62.6875 15.847656 C 63.367188 15.726562 63.832031 15.984375 64.261719 16.523438 C 66.21875 18.96875 67.300781 21.730469 67.371094 24.863281 C 67.394531 25.875 67.757812 26.550781 68.875 26.859375 C 68.945312 28.449219 68.945312 29.929688 68.941406 31.414062 C 68.460938 31.414062 67.976562 31.414062 67.5 31.414062 C 67.246094 33.800781 69.085938 35.722656 72.070312 36.199219 C 72.070312 39.402344 72.136719 42.617188 72.050781 45.828125 C 71.976562 48.460938 72.609375 50.710938 74.84375 52.269531 C 74.144531 54.550781 71.679688 56.359375 69.101562 56.425781 C 66.925781 56.484375 64.742188 56.507812 62.566406 56.417969 C 60.15625 56.320312 58.328125 55.136719 57.074219 53.070312 C 56.789062 52.601562 56.8125 52.339844 57.242188 51.851562 C 58.0625 50.925781 58.65625 49.804688 59.460938 48.699219 C 62.089844 48.632812 64.59375 48.640625 67.101562 48.628906 C 68.28125 48.625 68.933594 48.058594 68.941406 47.078125 C 68.945312 46.097656 68.289062 45.519531 67.121094 45.511719 C 65.65625 45.5 64.191406 45.507812 62.726562 45.503906 M 51.925781 35.230469 C 52.453125 35.53125 52.957031 36.007812 53.519531 36.09375 C 54.476562 36.238281 55.46875 36.109375 56.441406 36.144531 C 57.367188 36.179688 57.996094 36.835938 58 37.6875 C 58.003906 38.535156 57.375 39.191406 56.457031 39.246094 C 55.9375 39.28125 55.414062 39.234375 54.894531 39.265625 C 53.964844 39.316406 53.339844 39.945312 53.324219 40.800781 C 53.3125 41.648438 53.9375 42.316406 54.855469 42.371094 C 55.4375 42.410156 56.027344 42.398438 56.609375 42.375 C 59.136719 42.28125 61.136719 40.199219 61.128906 37.679688 C 61.125 35.160156 59.113281 33.085938 56.578125 33.015625 C 55.570312 32.984375 54.5625 32.996094 53.554688 33.011719 C 52.214844 33.03125 51.652344 33.734375 51.925781 35.230469 M 55.945312 26.945312 C 56.066406 26.578125 56.195312 26.210938 56.304688 25.839844 C 56.605469 24.835938 56.234375 24.011719 55.359375 23.714844 C 54.507812 23.425781 53.6875 23.878906 53.339844 24.882812 C 52.84375 26.320312 52.371094 27.765625 51.90625 29.210938 C 51.585938 30.222656 51.949219 31.042969 52.816406 31.355469 C 53.660156 31.660156 54.503906 31.210938 54.855469 30.222656 C 55.222656 29.1875 55.546875 28.136719 55.945312 26.945312 M 58.023438 22.300781 C 58.261719 23.28125 58.917969 23.660156 59.886719 23.640625 C 60.796875 23.617188 61.707031 23.65625 62.617188 23.625 C 63.601562 23.597656 64.257812 22.945312 64.253906 22.0625 C 64.246094 21.175781 63.59375 20.539062 62.601562 20.511719 C 61.660156 20.488281 60.714844 20.492188 59.773438 20.511719 C 58.648438 20.53125 58.199219 20.960938 58.023438 22.300781 M 61.792969 28.15625 C 62.550781 27.746094 62.855469 27.117188 62.613281 26.285156 C 62.378906 25.496094 61.535156 25.039062 60.765625 25.230469 C 59.945312 25.4375 59.410156 26.304688 59.605469 27.109375 C 59.816406 27.992188 60.554688 28.390625 61.792969 28.15625 M 48.644531 26.988281 C 49.078125 28.089844 49.820312 28.542969 50.691406 28.230469 C 51.4375 27.96875 51.910156 27.199219 51.726562 26.460938 C 51.53125 25.679688 51.019531 25.222656 50.199219 25.203125 C 49.316406 25.175781 48.804688 25.726562 48.644531 26.988281 Z M 48.644531 26.988281 "/>
<path style=" stroke:none;fill-rule:nonzero;fill:rgb(94.901961%,80%,68.235294%);fill-opacity:1;" d="M 22.007812 61.1875 C 22.109375 61.226562 22.136719 61.242188 22.167969 61.253906 C 23.230469 61.636719 24.632812 61.734375 25.257812 62.484375 C 25.890625 63.238281 25.761719 64.636719 25.953125 65.757812 C 26.21875 67.296875 26.503906 68.832031 26.714844 70.375 C 26.820312 71.164062 27.191406 71.675781 27.867188 72.058594 C 31.371094 74.042969 34.867188 76.042969 38.46875 78.097656 C 38.96875 77.238281 39.46875 76.378906 40.027344 75.425781 C 38.992188 74.816406 37.96875 74.21875 36.878906 73.578125 C 37.195312 73.246094 37.472656 72.957031 37.820312 72.59375 C 39.761719 73.707031 41.703125 74.808594 43.621094 75.941406 C 43.792969 76.042969 43.929688 76.347656 43.933594 76.558594 C 43.953125 78.902344 43.953125 81.246094 43.933594 83.589844 C 43.929688 83.855469 43.816406 84.164062 43.652344 84.375 C 42.164062 86.265625 40.652344 88.140625 39.101562 90.078125 C 38.859375 89.890625 38.632812 89.730469 38.421875 89.542969 C 34.503906 86.066406 30.605469 82.566406 26.648438 79.132812 C 26.140625 78.6875 25.304688 78.300781 24.675781 78.371094 C 22.085938 78.65625 19.886719 77.992188 18.023438 76.1875 C 17.839844 76.007812 17.605469 75.882812 17.332031 75.679688 C 18.144531 74.046875 18.953125 72.429688 19.734375 70.859375 C 20.617188 72.164062 21.492188 73.457031 22.410156 74.816406 C 23.230469 73.953125 23.898438 73.25 24.628906 72.484375 C 24.429688 72.226562 24.171875 71.910156 23.925781 71.585938 C 22.769531 70.0625 22.109375 68.34375 22.101562 66.4375 C 22.097656 65.371094 21.703125 64.6875 20.816406 64.121094 C 19.425781 63.226562 18.714844 61.894531 18.632812 60.089844 C 19.800781 60.46875 20.867188 60.8125 22.007812 61.1875 Z M 22.007812 61.1875 "/>
<path style=" stroke:none;fill-rule:nonzero;fill:rgb(95.686275%,80.784314%,68.627451%);fill-opacity:1;" d="M 95.542969 69.8125 C 95.996094 69.503906 96.457031 69.257812 96.976562 68.984375 C 97.046875 75.890625 97.058594 82.824219 97.070312 89.753906 C 97.074219 92.15625 97.070312 94.558594 97.070312 97.015625 C 93.941406 97.015625 90.871094 97.015625 87.726562 97.015625 C 87.71875 96.761719 87.695312 96.511719 87.695312 96.261719 C 87.695312 89.820312 87.707031 83.375 87.679688 76.929688 C 87.675781 76.292969 87.867188 75.957031 88.421875 75.648438 C 91.03125 74.195312 93.609375 72.695312 96.265625 71.171875 C 96.015625 70.71875 95.78125 70.296875 95.542969 69.8125 Z M 95.542969 69.8125 "/>
<path style=" stroke:none;fill-rule:nonzero;fill:rgb(18.431373%,24.705882%,32.54902%);fill-opacity:1;" d="M 48.019531 16.765625 C 50.632812 10.167969 56.296875 6.351562 63.25 6.449219 C 70.492188 6.554688 77.117188 12.457031 78.136719 19.644531 C 78.574219 22.722656 78.160156 25.636719 76.757812 28.457031 C 76.757812 27.507812 76.707031 26.554688 76.765625 25.609375 C 76.988281 22.007812 73.332031 19.558594 70.410156 20.820312 C 70.324219 20.855469 70.222656 20.847656 70.007812 20.878906 C 69.894531 20.574219 69.753906 20.257812 69.648438 19.933594 C 68.917969 17.667969 67.613281 15.753906 66.148438 13.898438 C 65.011719 12.449219 63.5625 12.632812 62.074219 12.761719 C 56.941406 13.199219 52.257812 14.886719 48.039062 17.847656 C 47.988281 17.882812 47.917969 17.882812 47.664062 17.941406 C 47.792969 17.515625 47.894531 17.175781 48.019531 16.765625 Z M 48.019531 16.765625 "/>
<path style=" stroke:none;fill-rule:nonzero;fill:rgb(94.901961%,80%,68.235294%);fill-opacity:1;" d="M 13.644531 60.722656 C 15.03125 60.632812 15.464844 60.917969 15.785156 62.144531 C 16.21875 63.800781 17.148438 65.140625 18.449219 66.300781 C 18.367188 66.507812 18.300781 66.714844 18.203125 66.910156 C 16.949219 69.4375 15.699219 71.964844 14.433594 74.484375 C 13.808594 75.726562 13.0625 75.96875 11.804688 75.351562 C 10.699219 74.808594 9.597656 74.257812 8.507812 73.679688 C 7.519531 73.152344 7.257812 72.417969 7.757812 71.40625 C 9.359375 68.148438 10.984375 64.898438 12.636719 61.664062 C 12.828125 61.292969 13.257812 61.042969 13.644531 60.722656 Z M 13.644531 60.722656 "/>
<path style=" stroke:none;fill-rule:nonzero;fill:rgb(74.901961%,81.176471%,85.882353%);fill-opacity:1;" d="M 25.945312 41.25 C 28.457031 42.6875 30.886719 44.136719 33.371094 45.472656 C 34.214844 45.925781 34.34375 46.371094 33.886719 47.125 C 33.671875 47.480469 33.488281 47.859375 33.246094 48.308594 C 28.722656 45.722656 24.253906 43.171875 19.664062 40.550781 C 20.144531 39.851562 20.589844 39.207031 21.082031 38.488281 C 22.742188 39.433594 24.3125 40.324219 25.945312 41.25 Z M 25.945312 41.25 "/>
<path style=" stroke:none;fill-rule:nonzero;fill:rgb(21.960784%,39.607843%,57.647059%);fill-opacity:1;" d="M 18.160156 54.679688 C 18.703125 53.355469 19.21875 52.101562 19.753906 50.804688 C 21.890625 51.871094 23.945312 52.898438 26.125 53.984375 C 25.277344 55.480469 24.472656 56.90625 23.609375 58.429688 C 21.59375 57.757812 19.609375 57.097656 17.496094 56.394531 C 17.722656 55.808594 17.929688 55.28125 18.160156 54.679688 Z M 18.160156 54.679688 "/>
<path style=" stroke:none;fill-rule:nonzero;fill:rgb(93.72549%,74.901961%,57.254902%);fill-opacity:1;" d="M 69.027344 31.429688 C 68.945312 29.929688 68.945312 28.449219 68.945312 26.875 C 69.898438 26.632812 70.417969 26.109375 70.523438 25.109375 C 70.625 24.160156 71.308594 23.59375 72.144531 23.636719 C 73.019531 23.679688 73.617188 24.34375 73.628906 25.359375 C 73.644531 27.308594 73.640625 29.257812 73.628906 31.207031 C 73.625 32.210938 73.136719 32.878906 72.3125 32.980469 C 71.40625 33.089844 70.832031 32.636719 70.542969 31.792969 C 70.507812 31.683594 70.480469 31.570312 70.445312 31.441406 C 69.957031 31.441406 69.535156 31.441406 69.027344 31.429688 Z M 69.027344 31.429688 "/>
<path style=" stroke:none;fill-rule:nonzero;fill:rgb(18.039216%,24.705882%,32.156863%);fill-opacity:1;" d="M 29.15625 49.554688 C 29.6875 49.871094 30.15625 50.15625 30.628906 50.441406 C 29.835938 51.398438 28.609375 51.707031 27.628906 51.21875 C 25.480469 50.152344 23.332031 49.078125 21.1875 48.003906 C 19.378906 47.101562 18.828125 46.078125 19.03125 43.785156 C 22.425781 45.722656 25.757812 47.621094 29.15625 49.554688 Z M 29.15625 49.554688 "/>
<path style=" stroke:none;fill-rule:nonzero;fill:rgb(94.901961%,75.686275%,58.039216%);fill-opacity:1;" d="M 62.714844 45.59375 C 64.191406 45.507812 65.65625 45.5 67.121094 45.511719 C 68.289062 45.519531 68.945312 46.097656 68.941406 47.078125 C 68.933594 48.058594 68.28125 48.625 67.101562 48.628906 C 64.59375 48.640625 62.089844 48.632812 59.492188 48.632812 C 59.472656 48.132812 59.539062 47.632812 59.617188 47.066406 C 60.628906 47.066406 61.617188 47.066406 62.699219 47.066406 C 62.699219 46.5625 62.699219 46.121094 62.714844 45.59375 Z M 62.714844 45.59375 "/>
<path style=" stroke:none;fill-rule:nonzero;fill:rgb(18.039216%,24.313725%,32.156863%);fill-opacity:1;" d="M 27.21875 38.40625 C 26.214844 37.820312 25.273438 37.269531 24.289062 36.691406 C 27.917969 34.6875 33.664062 37.917969 34.332031 42.4375 C 31.902344 41.0625 29.59375 39.75 27.21875 38.40625 Z M 27.21875 38.40625 "/>
<path style=" stroke:none;fill-rule:nonzero;fill:rgb(21.960784%,39.607843%,57.254902%);fill-opacity:1;" d="M 10.09375 77.980469 C 10.71875 78.265625 11.277344 78.519531 11.945312 78.820312 C 11 80.476562 10.066406 82.121094 9.054688 83.898438 C 8.292969 83.390625 7.582031 82.921875 6.8125 82.414062 C 7.496094 80.75 8.152344 79.144531 8.855469 77.429688 C 9.289062 77.621094 9.65625 77.785156 10.09375 77.980469 Z M 10.09375 77.980469 "/>
<path style=" stroke:none;fill-rule:nonzero;fill:rgb(1.176471%,1.176471%,0.784314%);fill-opacity:1;" d="M 51.890625 35.164062 C 51.652344 33.734375 52.214844 33.03125 53.554688 33.011719 C 54.5625 32.996094 55.570312 32.984375 56.578125 33.015625 C 59.113281 33.085938 61.125 35.160156 61.128906 37.679688 C 61.136719 40.199219 59.136719 42.28125 56.609375 42.375 C 56.027344 42.398438 55.4375 42.410156 54.855469 42.371094 C 53.9375 42.316406 53.3125 41.648438 53.324219 40.800781 C 53.339844 39.945312 53.964844 39.316406 54.894531 39.265625 C 55.414062 39.234375 55.9375 39.28125 56.457031 39.246094 C 57.375 39.191406 58.003906 38.535156 58 37.6875 C 57.996094 36.835938 57.367188 36.179688 56.441406 36.144531 C 55.46875 36.109375 54.476562 36.238281 53.519531 36.09375 C 52.957031 36.007812 52.453125 35.53125 51.890625 35.164062 Z M 51.890625 35.164062 "/>
<path style=" stroke:none;fill-rule:nonzero;fill:rgb(2.745098%,2.352941%,1.960784%);fill-opacity:1;" d="M 55.917969 27.019531 C 55.546875 28.136719 55.222656 29.1875 54.855469 30.222656 C 54.503906 31.210938 53.660156 31.660156 52.816406 31.355469 C 51.949219 31.042969 51.585938 30.222656 51.90625 29.210938 C 52.371094 27.765625 52.84375 26.320312 53.339844 24.882812 C 53.6875 23.878906 54.507812 23.425781 55.359375 23.714844 C 56.234375 24.011719 56.605469 24.835938 56.304688 25.839844 C 56.195312 26.210938 56.066406 26.578125 55.917969 27.019531 Z M 55.917969 27.019531 "/>
<path style=" stroke:none;fill-rule:nonzero;fill:rgb(1.960784%,1.568627%,1.568627%);fill-opacity:1;" d="M 58.019531 22.222656 C 58.199219 20.960938 58.648438 20.53125 59.773438 20.511719 C 60.714844 20.492188 61.660156 20.488281 62.601562 20.511719 C 63.59375 20.539062 64.246094 21.175781 64.253906 22.0625 C 64.257812 22.945312 63.601562 23.597656 62.617188 23.625 C 61.707031 23.65625 60.796875 23.617188 59.886719 23.640625 C 58.917969 23.660156 58.261719 23.28125 58.019531 22.222656 Z M 58.019531 22.222656 "/>
<path style=" stroke:none;fill-rule:nonzero;fill:rgb(4.313725%,3.921569%,3.137255%);fill-opacity:1;" d="M 61.726562 28.191406 C 60.554688 28.390625 59.816406 27.992188 59.605469 27.109375 C 59.410156 26.304688 59.945312 25.4375 60.765625 25.230469 C 61.535156 25.039062 62.378906 25.496094 62.613281 26.285156 C 62.855469 27.117188 62.550781 27.746094 61.726562 28.191406 Z M 61.726562 28.191406 "/>
<path style=" stroke:none;fill-rule:nonzero;fill:rgb(4.313725%,3.921569%,3.137255%);fill-opacity:1;" d="M 48.640625 26.910156 C 48.804688 25.726562 49.316406 25.175781 50.199219 25.203125 C 51.019531 25.222656 51.53125 25.679688 51.726562 26.460938 C 51.910156 27.199219 51.4375 27.96875 50.691406 28.230469 C 49.820312 28.542969 49.078125 28.089844 48.640625 26.910156 Z M 48.640625 26.910156 "/>
</g>
</svg>
