<?xml version="1.0" encoding="UTF-8"?>
<svg xmlns="http://www.w3.org/2000/svg" xmlns:xlink="http://www.w3.org/1999/xlink" width="100px" height="100px" viewBox="0 0 100 100" version="1.1">
<g id="surface1">
<path style=" stroke:none;fill-rule:nonzero;fill:rgb(0%,0%,0%);fill-opacity:1;" d="M 100.195312 37.109375 C 100.195312 58.199219 100.195312 79.1875 100.195312 100.1875 C 66.875 100.1875 33.554688 100.1875 0.214844 100.1875 C 0.214844 66.882812 0.214844 33.570312 0.214844 0.226562 C 33.527344 0.226562 66.863281 0.226562 100.195312 0.226562 C 100.195312 12.472656 100.195312 24.742188 100.195312 37.109375 M 48.101562 84.21875 C 47.484375 85.171875 46.835938 86.105469 46.261719 87.085938 C 45.035156 89.191406 45.320312 91.78125 46.929688 93.605469 C 48.523438 95.410156 51.179688 96.117188 53.316406 95.039062 C 55.527344 93.921875 57.609375 92.550781 59.777344 91.277344 C 58.488281 90.414062 57.195312 89.550781 55.902344 88.683594 C 52.882812 86.65625 53.359375 87.378906 53.316406 83.980469 C 53.316406 83.917969 53.300781 83.851562 53.316406 83.609375 C 53.320312 82.339844 53.292969 81.070312 53.328125 79.804688 C 53.375 78.125 54.128906 76.820312 55.546875 75.914062 C 56.773438 75.128906 58.097656 75.035156 59.570312 75.429688 C 59.570312 75.058594 59.570312 74.742188 59.570312 74.425781 C 59.570312 71.042969 59.550781 67.660156 59.578125 64.277344 C 59.601562 61.472656 61.933594 59.34375 64.671875 59.589844 C 65.113281 59.628906 65.542969 59.738281 65.972656 59.8125 C 66.777344 57.789062 68.15625 56.550781 70.300781 56.46875 C 72.667969 56.378906 74.179688 57.667969 75.042969 59.777344 C 78.578125 59.339844 80.28125 60.246094 81.3125 63.25 C 81.382812 64.167969 81.453125 65.085938 81.519531 66.007812 C 85.324219 65.347656 87.695312 67.34375 87.695312 71.160156 C 87.695312 76.429688 87.675781 81.695312 87.710938 86.964844 C 87.71875 87.914062 87.492188 88.660156 86.765625 89.292969 C 86.105469 89.871094 85.503906 90.515625 84.902344 91.152344 C 84.277344 91.816406 84.445312 93.054688 85.207031 93.546875 C 85.804688 93.9375 86.390625 94.347656 87.003906 94.710938 C 88.992188 95.890625 91.410156 95.753906 93.238281 94.378906 C 95.078125 93 96.007812 90.691406 95.277344 88.511719 C 94.824219 87.15625 93.953125 85.933594 93.195312 84.695312 C 88.792969 77.515625 87.992188 69.960938 91.066406 62.125 C 91.949219 59.886719 93.371094 57.855469 94.609375 55.765625 C 95.996094 53.421875 95.746094 50.660156 93.890625 48.761719 C 92.074219 46.902344 89.246094 46.527344 86.996094 47.871094 C 85.523438 48.75 84.070312 49.664062 82.464844 50.578125 C 75.402344 53.875 68.175781 54.304688 60.890625 51.515625 C 58.546875 50.621094 56.390625 49.222656 54.203125 47.964844 C 52.054688 46.726562 49.613281 46.777344 47.714844 48.246094 C 45.839844 49.691406 44.972656 52.128906 45.785156 54.339844 C 46.226562 55.539062 47.011719 56.617188 47.707031 57.710938 C 51.167969 63.152344 52.425781 69.039062 51.402344 75.417969 C 50.898438 78.539062 49.726562 81.402344 48.101562 84.21875 M 35.597656 46.996094 C 37.613281 49.226562 38.777344 51.851562 39.179688 54.835938 C 40.339844 54.835938 41.429688 54.835938 42.367188 54.835938 C 42.464844 53.375 42.429688 51.945312 42.683594 50.570312 C 43.101562 48.328125 44.566406 46.714844 46.425781 45.289062 C 47.949219 44.394531 49.597656 43.953125 51.515625 43.941406 C 53.464844 44.039062 55.144531 44.816406 56.738281 45.894531 C 62.152344 49.542969 68.085938 50.898438 74.554688 49.839844 C 78.28125 49.230469 81.636719 47.75 84.726562 45.613281 C 87.121094 43.960938 89.730469 43.507812 92.523438 44.359375 C 94.335938 44.914062 95.777344 46.03125 97 47.589844 C 97 42.121094 97 36.808594 97 31.445312 C 96.089844 31.445312 95.242188 31.410156 94.402344 31.453125 C 93.34375 31.511719 92.71875 31.070312 92.328125 30.074219 C 91.203125 27.238281 90.015625 24.421875 88.847656 21.601562 C 87.433594 18.179688 86.089844 14.726562 84.578125 11.347656 C 83.027344 7.890625 80.351562 5.746094 76.398438 5.0625 C 75.65625 5.003906 74.910156 4.890625 74.167969 4.890625 C 66.03125 4.878906 57.898438 4.90625 49.761719 4.875 C 45.355469 4.855469 42.035156 6.679688 39.660156 10.390625 C 35.46875 16.933594 31.210938 23.429688 27.023438 29.972656 C 26.433594 30.894531 25.71875 31.390625 24.675781 31.675781 C 20.480469 32.820312 16.316406 34.074219 12.117188 35.210938 C 11.261719 35.441406 11.109375 35.835938 11.117188 36.621094 C 11.140625 39.253906 11.089844 41.890625 10.972656 44.613281 C 10.617188 45.304688 10.019531 45.519531 9.277344 45.511719 C 7.828125 45.496094 6.378906 45.507812 4.960938 45.507812 C 4.960938 48.714844 4.960938 51.785156 4.960938 54.832031 C 7.082031 54.832031 9.117188 54.832031 11.21875 54.832031 C 11.660156 51.15625 13.382812 48.183594 16.160156 45.667969 C 18.65625 43.628906 21.5 42.488281 24.726562 42.394531 C 28.992188 42.273438 32.566406 43.859375 35.597656 46.996094 M 78.320312 67.480469 C 78.320312 66.535156 78.324219 65.59375 78.320312 64.648438 C 78.3125 63.417969 77.734375 62.703125 76.761719 62.703125 C 75.785156 62.699219 75.199219 63.410156 75.195312 64.640625 C 75.191406 67.800781 75.195312 70.957031 75.195312 74.113281 C 75.195312 74.457031 75.195312 74.804688 75.195312 75.132812 C 74.085938 75.132812 73.097656 75.132812 72.070312 75.132812 C 72.070312 74.710938 72.070312 74.359375 72.070312 74.003906 C 72.070312 69.804688 72.078125 65.605469 72.066406 61.40625 C 72.0625 60.082031 71.089844 59.269531 70.015625 59.664062 C 69.199219 59.964844 68.9375 60.605469 68.941406 61.441406 C 68.953125 65.671875 68.945312 69.902344 68.945312 74.132812 C 68.945312 74.476562 68.945312 74.820312 68.945312 75.125 C 67.820312 75.125 66.832031 75.125 65.820312 75.125 C 65.820312 73.621094 65.820312 72.191406 65.820312 70.761719 C 65.820312 68.613281 65.835938 66.464844 65.808594 64.316406 C 65.796875 63.335938 65.105469 62.679688 64.21875 62.703125 C 63.375 62.722656 62.757812 63.363281 62.699219 64.292969 C 62.683594 64.550781 62.695312 64.8125 62.695312 65.074219 C 62.695312 71.226562 62.695312 77.378906 62.695312 83.527344 C 62.695312 83.871094 62.695312 84.210938 62.695312 84.527344 C 61.582031 84.527344 60.613281 84.527344 59.570312 84.527344 C 59.570312 83.027344 59.582031 81.570312 59.566406 80.113281 C 59.554688 79.035156 58.960938 78.351562 58.046875 78.324219 C 57.097656 78.300781 56.460938 79.003906 56.449219 80.132812 C 56.433594 81.566406 56.476562 83 56.429688 84.429688 C 56.410156 85.046875 56.585938 85.417969 57.125 85.765625 C 59.339844 87.191406 61.453125 88.785156 63.730469 90.09375 C 65.394531 91.050781 66.046875 92.242188 65.851562 94.128906 C 65.699219 95.597656 65.820312 97.097656 65.820312 98.570312 C 71.089844 98.570312 76.246094 98.570312 81.445312 98.570312 C 81.445312 97.015625 81.585938 95.507812 81.414062 94.03125 C 81.105469 91.328125 81.769531 89.128906 84.066406 87.507812 C 84.359375 87.300781 84.546875 86.746094 84.550781 86.347656 C 84.582031 81.207031 84.574219 76.0625 84.570312 70.917969 C 84.566406 69.675781 84.003906 68.96875 83.03125 68.953125 C 82.03125 68.933594 81.449219 69.667969 81.445312 70.96875 C 81.441406 72.355469 81.445312 73.746094 81.445312 75.136719 C 80.351562 75.136719 79.363281 75.136719 78.320312 75.136719 C 78.320312 72.613281 78.320312 70.144531 78.320312 67.480469 M 16.253906 50.148438 C 14.4375 52.851562 13.761719 55.800781 14.578125 58.96875 C 15.695312 63.332031 18.515625 66.15625 22.890625 67.105469 C 27.398438 68.082031 31.183594 66.570312 33.996094 62.90625 C 37.40625 58.464844 36.570312 51.773438 32.363281 48.183594 C 27.601562 44.117188 20.257812 44.707031 16.253906 50.148438 M 4.882812 42.042969 C 5.003906 42.15625 5.117188 42.363281 5.238281 42.367188 C 6.136719 42.394531 7.039062 42.382812 7.945312 42.382812 C 7.945312 40.371094 7.945312 38.449219 7.945312 36.445312 C 6.882812 36.753906 5.894531 37.035156 4.882812 37.328125 C 4.882812 38.871094 4.882812 40.363281 4.882812 42.042969 M 11.71875 80.179688 C 12.277344 79.472656 12.835938 78.765625 13.238281 78.261719 C 12.625 77.625 11.808594 76.777344 11.175781 76.121094 C 10.4375 76.835938 9.589844 77.65625 8.9375 78.289062 C 9.648438 79.003906 10.464844 79.824219 11.320312 80.683594 C 11.328125 80.675781 11.480469 80.480469 11.71875 80.179688 M 10.171875 12.582031 C 10.484375 12.941406 10.792969 13.304688 10.953125 13.488281 C 11.8125 12.628906 12.648438 11.792969 13.300781 11.136719 C 12.628906 10.441406 11.808594 9.59375 11.214844 8.984375 C 10.460938 9.667969 9.582031 10.460938 8.714844 11.246094 C 9.125 11.617188 9.601562 12.046875 10.171875 12.582031 M 28.636719 88.109375 C 28.210938 88.488281 27.78125 88.867188 27.351562 89.246094 C 27.441406 89.1875 27.53125 89.125 27.617188 89.066406 C 28.417969 89.933594 29.214844 90.800781 29.828125 91.464844 C 30.574219 90.726562 31.414062 89.898438 32.046875 89.28125 C 31.339844 88.566406 30.511719 87.730469 29.695312 86.90625 C 29.457031 87.183594 29.097656 87.597656 28.636719 88.109375 Z M 28.636719 88.109375 "/>
<path style=" stroke:none;fill-rule:nonzero;fill:rgb(23.921569%,59.607843%,96.470588%);fill-opacity:1;" d="M 11.066406 44.523438 C 11.089844 41.890625 11.140625 39.253906 11.117188 36.621094 C 11.109375 35.835938 11.261719 35.441406 12.117188 35.210938 C 16.316406 34.074219 20.480469 32.820312 24.675781 31.675781 C 25.71875 31.390625 26.433594 30.894531 27.023438 29.972656 C 31.210938 23.429688 35.46875 16.933594 39.660156 10.390625 C 42.035156 6.679688 45.355469 4.855469 49.761719 4.875 C 57.898438 4.90625 66.03125 4.878906 74.167969 4.890625 C 74.910156 4.890625 75.65625 5.003906 76.476562 5.164062 C 76.882812 6.441406 77.210938 7.621094 77.464844 8.789062 C 76.328125 8.523438 75.265625 8.054688 74.195312 8.046875 C 66.261719 7.984375 58.328125 7.984375 50.394531 8.023438 C 47.746094 8.039062 45.648438 9.242188 44.132812 11.40625 C 43.683594 12.046875 43.296875 12.726562 42.886719 13.386719 C 39.773438 18.449219 36.664062 23.515625 33.539062 28.574219 C 33.132812 29.234375 32.773438 29.878906 33.230469 30.652344 C 33.675781 31.417969 34.410156 31.484375 35.1875 31.445312 C 35.378906 31.4375 35.574219 31.445312 35.769531 31.445312 C 45.851562 31.445312 55.933594 31.445312 66.015625 31.445312 C 67.703125 31.449219 69.394531 31.46875 71.054688 31.535156 C 70.011719 32.542969 69.03125 33.53125 67.988281 34.453125 C 63.820312 38.144531 59.015625 40.769531 53.847656 42.769531 C 53 43.101562 52.183594 43.519531 51.355469 43.898438 C 49.597656 43.953125 47.949219 44.394531 46.316406 45.253906 C 42.648438 45.773438 39.089844 46.328125 35.53125 46.882812 C 32.566406 43.859375 28.992188 42.273438 24.726562 42.394531 C 21.5 42.488281 18.65625 43.628906 16.023438 45.679688 C 14.277344 45.300781 12.671875 44.910156 11.066406 44.523438 M 62.695312 36.226562 C 62.695312 35.6875 62.695312 35.152344 62.695312 34.632812 C 60.542969 34.632812 58.519531 34.632812 56.511719 34.632812 C 56.511719 35.679688 56.511719 36.664062 56.511719 37.632812 C 58.597656 37.632812 60.621094 37.632812 62.695312 37.632812 C 62.695312 37.183594 62.695312 36.800781 62.695312 36.226562 Z M 62.695312 36.226562 "/>
<path style=" stroke:none;fill-rule:nonzero;fill:rgb(16.862745%,45.490196%,78.823529%);fill-opacity:1;" d="M 51.4375 43.921875 C 52.183594 43.519531 53 43.101562 53.847656 42.769531 C 59.015625 40.769531 63.820312 38.144531 67.988281 34.453125 C 69.03125 33.53125 70.011719 32.542969 71.144531 31.519531 C 76.015625 31.449219 80.761719 31.449219 85.511719 31.445312 C 87.484375 31.445312 88.066406 30.582031 87.347656 28.710938 C 85.464844 23.800781 83.527344 18.910156 81.707031 13.976562 C 80.886719 11.746094 79.625 9.964844 77.539062 8.800781 C 77.210938 7.621094 76.882812 6.441406 76.554688 5.1875 C 80.351562 5.746094 83.027344 7.890625 84.578125 11.347656 C 86.089844 14.726562 87.433594 18.179688 88.847656 21.601562 C 90.015625 24.421875 91.203125 27.238281 92.328125 30.074219 C 92.71875 31.070312 93.34375 31.511719 94.402344 31.453125 C 95.242188 31.410156 96.089844 31.445312 97 31.445312 C 97 36.808594 97 42.121094 97 47.589844 C 95.777344 46.03125 94.335938 44.914062 92.523438 44.359375 C 89.730469 43.507812 87.121094 43.960938 84.726562 45.613281 C 81.636719 47.75 78.28125 49.230469 74.554688 49.839844 C 68.085938 50.898438 62.152344 49.542969 56.738281 45.894531 C 55.144531 44.816406 53.464844 44.039062 51.4375 43.921875 M 82.730469 34.570312 C 82.324219 34.570312 81.914062 34.570312 81.519531 34.570312 C 81.519531 35.6875 81.519531 36.671875 81.519531 37.648438 C 83.597656 37.648438 85.597656 37.648438 87.636719 37.648438 C 87.636719 36.613281 87.636719 35.628906 87.636719 34.570312 C 86.027344 34.570312 84.476562 34.570312 82.730469 34.570312 Z M 82.730469 34.570312 "/>
<path style=" stroke:none;fill-rule:nonzero;fill:rgb(93.72549%,74.509804%,60.392157%);fill-opacity:1;" d="M 78.320312 67.578125 C 78.320312 70.144531 78.320312 72.613281 78.320312 75.136719 C 79.363281 75.136719 80.351562 75.136719 81.445312 75.136719 C 81.445312 73.746094 81.441406 72.355469 81.445312 70.96875 C 81.449219 69.667969 82.03125 68.933594 83.03125 68.953125 C 84.003906 68.96875 84.566406 69.675781 84.570312 70.917969 C 84.574219 76.0625 84.582031 81.207031 84.550781 86.347656 C 84.546875 86.746094 84.359375 87.300781 84.066406 87.507812 C 81.769531 89.128906 81.105469 91.328125 81.414062 94.03125 C 81.585938 95.507812 81.445312 97.015625 81.445312 98.570312 C 76.246094 98.570312 71.089844 98.570312 65.820312 98.570312 C 65.820312 97.097656 65.699219 95.597656 65.851562 94.128906 C 66.046875 92.242188 65.394531 91.050781 63.730469 90.09375 C 61.453125 88.785156 59.339844 87.191406 57.125 85.765625 C 56.585938 85.417969 56.410156 85.046875 56.429688 84.429688 C 56.476562 83 56.433594 81.566406 56.449219 80.132812 C 56.460938 79.003906 57.097656 78.300781 58.046875 78.324219 C 58.960938 78.351562 59.554688 79.035156 59.566406 80.113281 C 59.582031 81.570312 59.570312 83.027344 59.570312 84.527344 C 60.613281 84.527344 61.582031 84.527344 62.695312 84.527344 C 62.695312 84.210938 62.695312 83.871094 62.695312 83.527344 C 62.695312 77.378906 62.695312 71.226562 62.695312 65.074219 C 62.695312 64.8125 62.683594 64.550781 62.699219 64.292969 C 62.757812 63.363281 63.375 62.722656 64.21875 62.703125 C 65.105469 62.679688 65.796875 63.335938 65.808594 64.316406 C 65.835938 66.464844 65.820312 68.613281 65.820312 70.761719 C 65.820312 72.191406 65.820312 73.621094 65.820312 75.125 C 66.832031 75.125 67.820312 75.125 68.945312 75.125 C 68.945312 74.820312 68.945312 74.476562 68.945312 74.132812 C 68.945312 69.902344 68.953125 65.671875 68.941406 61.441406 C 68.9375 60.605469 69.199219 59.964844 70.015625 59.664062 C 71.089844 59.269531 72.0625 60.082031 72.066406 61.40625 C 72.078125 65.605469 72.070312 69.804688 72.070312 74.003906 C 72.070312 74.359375 72.070312 74.710938 72.070312 75.132812 C 73.097656 75.132812 74.085938 75.132812 75.195312 75.132812 C 75.195312 74.804688 75.195312 74.457031 75.195312 74.113281 C 75.195312 70.957031 75.191406 67.800781 75.195312 64.640625 C 75.199219 63.410156 75.785156 62.699219 76.761719 62.703125 C 77.734375 62.703125 78.3125 63.417969 78.320312 64.648438 C 78.324219 65.59375 78.320312 66.535156 78.320312 67.578125 Z M 78.320312 67.578125 "/>
<path style=" stroke:none;fill-rule:nonzero;fill:rgb(97.647059%,87.058824%,69.411765%);fill-opacity:1;" d="M 81.3125 63.089844 C 80.28125 60.246094 78.578125 59.339844 75.042969 59.777344 C 74.179688 57.667969 72.667969 56.378906 70.300781 56.46875 C 68.15625 56.550781 66.777344 57.789062 65.972656 59.8125 C 65.542969 59.738281 65.113281 59.628906 64.671875 59.589844 C 61.933594 59.34375 59.601562 61.472656 59.578125 64.277344 C 59.550781 67.660156 59.570312 71.042969 59.570312 74.425781 C 59.570312 74.742188 59.570312 75.058594 59.570312 75.429688 C 58.097656 75.035156 56.773438 75.128906 55.546875 75.914062 C 54.128906 76.820312 53.375 78.125 53.328125 79.804688 C 53.292969 81.070312 53.320312 82.339844 53.226562 83.710938 C 52.601562 83.925781 52.066406 84.109375 51.527344 84.132812 C 50.425781 84.183594 49.320312 84.148438 48.214844 84.148438 C 49.726562 81.402344 50.898438 78.539062 51.402344 75.417969 C 52.425781 69.039062 51.167969 63.152344 47.707031 57.710938 C 47.011719 56.617188 46.226562 55.539062 45.785156 54.339844 C 44.972656 52.128906 45.839844 49.691406 47.714844 48.246094 C 49.613281 46.777344 52.054688 46.726562 54.203125 47.964844 C 56.390625 49.222656 58.546875 50.621094 60.890625 51.515625 C 68.175781 54.304688 75.402344 53.875 82.542969 50.652344 C 83.277344 54.15625 83.113281 57.554688 82.195312 60.914062 C 81.988281 61.664062 81.609375 62.367188 81.3125 63.089844 Z M 81.3125 63.089844 "/>
<path style=" stroke:none;fill-rule:nonzero;fill:rgb(95.686275%,80.784314%,52.941176%);fill-opacity:1;" d="M 81.3125 63.171875 C 81.609375 62.367188 81.988281 61.664062 82.195312 60.914062 C 83.113281 57.554688 83.277344 54.15625 82.613281 50.644531 C 84.070312 49.664062 85.523438 48.75 86.996094 47.871094 C 89.246094 46.527344 92.074219 46.902344 93.890625 48.761719 C 95.746094 50.660156 95.996094 53.421875 94.609375 55.765625 C 93.371094 57.855469 91.949219 59.886719 91.066406 62.125 C 87.992188 69.960938 88.792969 77.515625 93.195312 84.695312 C 93.953125 85.933594 94.824219 87.15625 95.277344 88.511719 C 96.007812 90.691406 95.078125 93 93.238281 94.378906 C 91.410156 95.753906 88.992188 95.890625 87.003906 94.710938 C 86.390625 94.347656 85.804688 93.9375 85.207031 93.546875 C 84.445312 93.054688 84.277344 91.816406 84.902344 91.152344 C 85.503906 90.515625 86.105469 89.871094 86.765625 89.292969 C 87.492188 88.660156 87.71875 87.914062 87.710938 86.964844 C 87.675781 81.695312 87.695312 76.429688 87.695312 71.160156 C 87.695312 67.34375 85.324219 65.347656 81.519531 66.007812 C 81.453125 65.085938 81.382812 64.167969 81.3125 63.171875 Z M 81.3125 63.171875 "/>
<path style=" stroke:none;fill-rule:nonzero;fill:rgb(29.803922%,36.078431%,47.058824%);fill-opacity:1;" d="M 16.296875 50.09375 C 20.257812 44.707031 27.601562 44.117188 32.363281 48.183594 C 36.570312 51.773438 37.40625 58.464844 33.996094 62.90625 C 31.183594 66.570312 27.398438 68.082031 22.890625 67.105469 C 18.515625 66.15625 15.695312 63.332031 14.578125 58.96875 C 13.761719 55.800781 14.4375 52.851562 16.296875 50.09375 M 17.566406 54.816406 C 17.566406 55.878906 17.390625 56.972656 17.589844 57.992188 C 18.207031 61.113281 20.160156 63.152344 23.199219 63.972656 C 26.339844 64.820312 29.101562 63.910156 31.171875 61.429688 C 33.210938 58.980469 33.609375 56.160156 32.277344 53.21875 C 30.890625 50.160156 27.863281 48.402344 24.574219 48.648438 C 21.242188 48.894531 18.617188 51.152344 17.566406 54.816406 Z M 17.566406 54.816406 "/>
<path style=" stroke:none;fill-rule:nonzero;fill:rgb(95.294118%,80.784314%,52.941176%);fill-opacity:1;" d="M 48.15625 84.183594 C 49.320312 84.148438 50.425781 84.183594 51.527344 84.132812 C 52.066406 84.109375 52.601562 83.925781 53.214844 83.800781 C 53.300781 83.851562 53.316406 83.917969 53.316406 83.980469 C 53.359375 87.378906 52.882812 86.65625 55.902344 88.683594 C 57.195312 89.550781 58.488281 90.414062 59.777344 91.277344 C 57.609375 92.550781 55.527344 93.921875 53.316406 95.039062 C 51.179688 96.117188 48.523438 95.410156 46.929688 93.605469 C 45.320312 91.78125 45.035156 89.191406 46.261719 87.085938 C 46.835938 86.105469 47.484375 85.171875 48.15625 84.183594 Z M 48.15625 84.183594 "/>
<path style=" stroke:none;fill-rule:nonzero;fill:rgb(16.862745%,45.490196%,78.823529%);fill-opacity:1;" d="M 11.019531 44.566406 C 12.671875 44.910156 14.277344 45.300781 15.960938 45.703125 C 13.382812 48.183594 11.660156 51.15625 11.21875 54.832031 C 9.117188 54.832031 7.082031 54.832031 4.960938 54.832031 C 4.960938 51.785156 4.960938 48.714844 4.960938 45.507812 C 6.378906 45.507812 7.828125 45.496094 9.277344 45.511719 C 10.019531 45.519531 10.617188 45.304688 11.019531 44.566406 Z M 11.019531 44.566406 "/>
<path style=" stroke:none;fill-rule:nonzero;fill:rgb(16.862745%,45.098039%,78.431373%);fill-opacity:1;" d="M 35.5625 46.941406 C 39.089844 46.328125 42.648438 45.773438 46.25 45.269531 C 44.566406 46.714844 43.101562 48.328125 42.683594 50.570312 C 42.429688 51.945312 42.464844 53.375 42.367188 54.835938 C 41.429688 54.835938 40.339844 54.835938 39.179688 54.835938 C 38.777344 51.851562 37.613281 49.226562 35.5625 46.941406 Z M 35.5625 46.941406 "/>
<path style=" stroke:none;fill-rule:nonzero;fill:rgb(97.254902%,81.568627%,54.509804%);fill-opacity:1;" d="M 4.882812 41.949219 C 4.882812 40.363281 4.882812 38.871094 4.882812 37.328125 C 5.894531 37.035156 6.882812 36.753906 7.945312 36.445312 C 7.945312 38.449219 7.945312 40.371094 7.945312 42.382812 C 7.039062 42.382812 6.136719 42.394531 5.238281 42.367188 C 5.117188 42.363281 5.003906 42.15625 4.882812 41.949219 Z M 4.882812 41.949219 "/>
<path style=" stroke:none;fill-rule:nonzero;fill:rgb(52.941176%,80%,93.333333%);fill-opacity:1;" d="M 11.675781 80.234375 C 11.480469 80.480469 11.328125 80.675781 11.320312 80.683594 C 10.464844 79.824219 9.648438 79.003906 8.9375 78.289062 C 9.589844 77.65625 10.4375 76.835938 11.175781 76.121094 C 11.808594 76.777344 12.625 77.625 13.238281 78.261719 C 12.835938 78.765625 12.277344 79.472656 11.675781 80.234375 Z M 11.675781 80.234375 "/>
<path style=" stroke:none;fill-rule:nonzero;fill:rgb(52.941176%,80%,93.333333%);fill-opacity:1;" d="M 10.128906 12.53125 C 9.601562 12.046875 9.125 11.617188 8.714844 11.246094 C 9.582031 10.460938 10.460938 9.667969 11.214844 8.984375 C 11.808594 9.59375 12.628906 10.441406 13.300781 11.136719 C 12.648438 11.792969 11.8125 12.628906 10.953125 13.488281 C 10.792969 13.304688 10.484375 12.941406 10.128906 12.53125 Z M 10.128906 12.53125 "/>
<path style=" stroke:none;fill-rule:nonzero;fill:rgb(52.941176%,80%,93.333333%);fill-opacity:1;" d="M 28.6875 88.0625 C 29.097656 87.597656 29.457031 87.183594 29.695312 86.90625 C 30.511719 87.730469 31.339844 88.566406 32.046875 89.28125 C 31.414062 89.898438 30.574219 90.726562 29.828125 91.464844 C 29.214844 90.800781 28.417969 89.933594 27.617188 89.066406 C 27.53125 89.125 27.441406 89.1875 27.351562 89.246094 C 27.78125 88.867188 28.210938 88.488281 28.6875 88.0625 Z M 28.6875 88.0625 "/>
<path style=" stroke:none;fill-rule:nonzero;fill:rgb(0.392157%,0.392157%,0.392157%);fill-opacity:1;" d="M 77.464844 8.789062 C 79.625 9.964844 80.886719 11.746094 81.707031 13.976562 C 83.527344 18.910156 85.464844 23.800781 87.347656 28.710938 C 88.066406 30.582031 87.484375 31.445312 85.511719 31.445312 C 80.761719 31.449219 76.015625 31.449219 71.175781 31.464844 C 69.394531 31.46875 67.703125 31.449219 66.015625 31.445312 C 55.933594 31.445312 45.851562 31.445312 35.769531 31.445312 C 35.574219 31.445312 35.378906 31.4375 35.1875 31.445312 C 34.410156 31.484375 33.675781 31.417969 33.230469 30.652344 C 32.773438 29.878906 33.132812 29.234375 33.539062 28.574219 C 36.664062 23.515625 39.773438 18.449219 42.886719 13.386719 C 43.296875 12.726562 43.683594 12.046875 44.132812 11.40625 C 45.648438 9.242188 47.746094 8.039062 50.394531 8.023438 C 58.328125 7.984375 66.261719 7.984375 74.195312 8.046875 C 75.265625 8.054688 76.328125 8.523438 77.464844 8.789062 M 76.074219 11.617188 C 75.257812 11.457031 74.4375 11.167969 73.617188 11.15625 C 70.234375 11.101562 66.851562 11.132812 63.46875 11.136719 C 63.222656 11.136719 62.976562 11.167969 62.726562 11.1875 C 62.726562 14.921875 62.726562 18.59375 62.695312 22.445312 C 62.695312 24.386719 62.695312 26.328125 62.695312 28.285156 C 69.777344 28.285156 76.757812 28.285156 83.757812 28.285156 C 83.746094 28.15625 83.757812 28.050781 83.726562 27.96875 C 81.972656 23.394531 80.226562 18.820312 78.449219 14.257812 C 78.015625 13.148438 77.332031 12.210938 76.074219 11.617188 M 39.503906 24.832031 C 38.820312 25.953125 38.140625 27.074219 37.421875 28.257812 C 44.878906 28.257812 52.207031 28.257812 59.535156 28.257812 C 59.535156 26.609375 59.535156 25.019531 59.566406 23.25 C 59.566406 19.234375 59.566406 15.214844 59.566406 11.148438 C 56.363281 11.148438 53.25 11.101562 50.140625 11.171875 C 48.746094 11.203125 47.539062 11.886719 46.792969 13.078125 C 44.367188 16.953125 42.003906 20.863281 39.503906 24.832031 Z M 39.503906 24.832031 "/>
<path style=" stroke:none;fill-rule:nonzero;fill:rgb(0%,0%,0%);fill-opacity:1;" d="M 62.695312 36.320312 C 62.695312 36.800781 62.695312 37.183594 62.695312 37.632812 C 60.621094 37.632812 58.597656 37.632812 56.511719 37.632812 C 56.511719 36.664062 56.511719 35.679688 56.511719 34.632812 C 58.519531 34.632812 60.542969 34.632812 62.695312 34.632812 C 62.695312 35.152344 62.695312 35.6875 62.695312 36.320312 Z M 62.695312 36.320312 "/>
<path style=" stroke:none;fill-rule:nonzero;fill:rgb(0%,0%,0%);fill-opacity:1;" d="M 82.828125 34.570312 C 84.476562 34.570312 86.027344 34.570312 87.636719 34.570312 C 87.636719 35.628906 87.636719 36.613281 87.636719 37.648438 C 85.597656 37.648438 83.597656 37.648438 81.519531 37.648438 C 81.519531 36.671875 81.519531 35.6875 81.519531 34.570312 C 81.914062 34.570312 82.324219 34.570312 82.828125 34.570312 Z M 82.828125 34.570312 "/>
<path style=" stroke:none;fill-rule:nonzero;fill:rgb(0.784314%,0.784314%,0.784314%);fill-opacity:1;" d="M 17.578125 54.734375 C 18.617188 51.152344 21.242188 48.894531 24.574219 48.648438 C 27.863281 48.402344 30.890625 50.160156 32.277344 53.21875 C 33.609375 56.160156 33.210938 58.980469 31.171875 61.429688 C 29.101562 63.910156 26.339844 64.820312 23.199219 63.972656 C 20.160156 63.152344 18.207031 61.113281 17.589844 57.992188 C 17.390625 56.972656 17.566406 55.878906 17.578125 54.734375 M 29.855469 55.855469 C 29.796875 55.601562 29.75 55.34375 29.675781 55.097656 C 29.019531 52.902344 26.78125 51.464844 24.550781 51.792969 C 22.238281 52.136719 20.503906 54.140625 20.507812 56.460938 C 20.519531 59.050781 22.675781 61.164062 25.269531 61.132812 C 27.957031 61.09375 29.910156 58.921875 29.855469 55.855469 Z M 29.855469 55.855469 "/>
<path style=" stroke:none;fill-rule:nonzero;fill:rgb(91.764706%,96.470588%,99.215686%);fill-opacity:1;" d="M 39.621094 24.761719 C 42.003906 20.863281 44.367188 16.953125 46.792969 13.078125 C 47.539062 11.886719 48.746094 11.203125 50.140625 11.171875 C 53.25 11.101562 56.363281 11.148438 59.566406 11.148438 C 59.566406 15.214844 59.566406 19.234375 59.472656 23.34375 C 53.75 24.8125 48.035156 25.367188 42.246094 25.175781 C 41.367188 25.148438 40.496094 24.90625 39.621094 24.761719 Z M 39.621094 24.761719 "/>
<path style=" stroke:none;fill-rule:nonzero;fill:rgb(78.039216%,88.627451%,98.823529%);fill-opacity:1;" d="M 76.171875 11.726562 C 77.332031 12.210938 78.015625 13.148438 78.449219 14.257812 C 80.226562 18.820312 81.972656 23.394531 83.726562 27.96875 C 83.757812 28.050781 83.746094 28.15625 83.757812 28.285156 C 76.757812 28.285156 69.777344 28.285156 62.695312 28.285156 C 62.695312 26.328125 62.695312 24.386719 62.785156 22.355469 C 66.070312 21.300781 68.957031 19.722656 71.597656 17.71875 C 73.648438 16.160156 75.3125 14.234375 76.171875 11.726562 Z M 76.171875 11.726562 "/>
<path style=" stroke:none;fill-rule:nonzero;fill:rgb(92.156863%,96.862745%,99.607843%);fill-opacity:1;" d="M 76.125 11.671875 C 75.3125 14.234375 73.648438 16.160156 71.597656 17.71875 C 68.957031 19.722656 66.070312 21.300781 62.800781 22.265625 C 62.726562 18.59375 62.726562 14.921875 62.726562 11.1875 C 62.976562 11.167969 63.222656 11.136719 63.46875 11.136719 C 66.851562 11.132812 70.234375 11.101562 73.617188 11.15625 C 74.4375 11.167969 75.257812 11.457031 76.125 11.671875 Z M 76.125 11.671875 "/>
<path style=" stroke:none;fill-rule:nonzero;fill:rgb(78.039216%,88.627451%,98.823529%);fill-opacity:1;" d="M 39.5625 24.796875 C 40.496094 24.90625 41.367188 25.148438 42.246094 25.175781 C 48.035156 25.367188 53.75 24.8125 59.457031 23.433594 C 59.535156 25.019531 59.535156 26.609375 59.535156 28.257812 C 52.207031 28.257812 44.878906 28.257812 37.421875 28.257812 C 38.140625 27.074219 38.820312 25.953125 39.5625 24.796875 Z M 39.5625 24.796875 "/>
<path style=" stroke:none;fill-rule:nonzero;fill:rgb(52.941176%,56.862745%,62.352941%);fill-opacity:1;" d="M 29.859375 55.9375 C 29.910156 58.921875 27.957031 61.09375 25.269531 61.132812 C 22.675781 61.164062 20.519531 59.050781 20.507812 56.460938 C 20.503906 54.140625 22.238281 52.136719 24.550781 51.792969 C 26.78125 51.464844 29.019531 52.902344 29.675781 55.097656 C 29.75 55.34375 29.796875 55.601562 29.859375 55.9375 Z M 29.859375 55.9375 "/>
</g>
</svg>
